<svg xmlns="http://www.w3.org/2000/svg" xmlns:xlink="http://www.w3.org/1999/xlink" version="1.1" data-diagram-type="DESCRIPTION" style="width:529px;height:908px;background:#FFFFFF;" width="529px" height="908px" viewBox="0 0 529 908" zoomAndPan="magnify" preserveAspectRatio="none" contentStyleType="text/css"><?plantuml 1.2026.8beta1?><defs/><g font-family="sans-serif" lengthAdjust="spacing"><!--cluster AI 여행가방 확인 플랫폼--><g class="cluster" data-qualified-name="AI .... .. ..." id="ent0002" data-source-line="41"><rect x="93.5" y="7" width="209.93" height="783" fill="none" style="stroke:#46524E;stroke-width:1;" rx="2.5" ry="2.5"/><text x="130.407" y="21.067" fill="#000" font-size="13" textLength="136.116" font-weight="700" font-family="'Apple SD Gothic Neo'">AI 여행가방 확인 플랫폼</text></g><!--entity UC01--><g class="entity" data-qualified-name="AI .... .. ....UC01" id="ent0003" data-source-line="42"><ellipse cx="198.46" cy="77.002" rx="61.26" ry="35.622" fill="#EFEFEF" style="stroke:#BBB;stroke-width:0.5;"/><text x="178.546" y="57.978" fill="#8C8C8C" font-size="13" textLength="39.827" font-style="italic" font-family="'Apple SD Gothic Neo'">«제외»</text><text x="178.547" y="73.11" fill="#8C8C8C" font-size="13" textLength="39.825" font-family="'Apple SD Gothic Neo'">UC-01</text><text x="146.487" y="88.243" fill="#8C8C8C" font-size="13" textLength="103.945" font-family="'Apple SD Gothic Neo'">회원가입 및 로그인</text><text x="172.18" y="101.52" fill="#8C8C8C" font-size="11" textLength="52.559" font-family="'Apple SD Gothic Neo'">(범위 제외)</text></g><!--entity UC02--><g class="entity" data-qualified-name="AI .... .. ....UC02" id="ent0004" data-source-line="43"><ellipse cx="198.455" cy="153.997" rx="37.905" ry="23.327" fill="#F5F7F6" style="stroke:#8A9A94;stroke-width:0.5;"/><text x="178.543" y="148.935" fill="#14201C" font-size="13" textLength="39.825" font-family="'Apple SD Gothic Neo'">UC-02</text><text x="172.469" y="164.068" fill="#14201C" font-size="13" textLength="51.972" font-family="'Apple SD Gothic Neo'">여행 등록</text></g><!--entity UC03--><g class="entity" data-qualified-name="AI .... .. ....UC03" id="ent0005" data-source-line="44"><ellipse cx="198.459" cy="218" rx="47.349" ry="22.72" fill="#F5F7F6" style="stroke:#8A9A94;stroke-width:0.5;"/><text x="178.547" y="212.012" fill="#14201C" font-size="13" textLength="39.825" font-family="'Apple SD Gothic Neo'">UC-03</text><text x="164.427" y="227.145" fill="#14201C" font-size="13" textLength="68.065" font-family="'Apple SD Gothic Neo'">짐 사진 등록</text></g><!--entity UC04--><g class="entity" data-qualified-name="AI .... .. ....UC04" id="ent0006" data-source-line="45"><ellipse cx="198.458" cy="290.004" rx="74.158" ry="31.594" fill="#D9EAE6" style="stroke:#0D6455;stroke-width:0.5;"/><text x="184.141" y="273.628" fill="#093B32" font-size="13" textLength="28.634" font-style="italic" font-family="'Apple SD Gothic Neo'">«AI»</text><text x="178.546" y="288.76" fill="#093B32" font-size="13" textLength="39.825" font-family="'Apple SD Gothic Neo'">UC-04</text><text x="141.97" y="303.893" fill="#093B32" font-size="13" textLength="112.976" font-family="'Apple SD Gothic Neo'">AI 사진 속 물품 인식</text></g><!--entity UC05--><g class="entity" data-qualified-name="AI .... .. ....UC05" id="ent0007" data-source-line="46"><ellipse cx="198.463" cy="371.003" rx="86.443" ry="31.533" fill="#D9EAE6" style="stroke:#0D6455;stroke-width:0.5;"/><text x="184.146" y="354.526" fill="#093B32" font-size="13" textLength="28.634" font-style="italic" font-family="'Apple SD Gothic Neo'">«AI»</text><text x="178.55" y="369.659" fill="#093B32" font-size="13" textLength="39.825" font-family="'Apple SD Gothic Neo'">UC-05</text><text x="132.081" y="384.792" fill="#093B32" font-size="13" textLength="132.764" font-family="'Apple SD Gothic Neo'">AI 맞춤 체크리스트 생성</text></g><!--entity UC06--><g class="entity" data-qualified-name="AI .... .. ....UC06" id="ent0008" data-source-line="47"><ellipse cx="198.461" cy="443.002" rx="59.291" ry="22.392" fill="#F5F7F6" style="stroke:#8A9A94;stroke-width:0.5;"/><text x="178.548" y="436.497" fill="#14201C" font-size="13" textLength="39.825" font-family="'Apple SD Gothic Neo'">UC-06</text><text x="154.535" y="451.63" fill="#14201C" font-size="13" textLength="87.852" font-family="'Apple SD Gothic Neo'">체크리스트 관리</text></g><!--entity UC07--><g class="entity" data-qualified-name="AI .... .. ....UC07" id="ent0009" data-source-line="48"><ellipse cx="198.459" cy="516.001" rx="73.469" ry="32.601" fill="#FFF8D5" style="stroke:#A08B3C;stroke-width:0.5;"/><text x="166.585" y="501.234" fill="#5C4E17" font-size="13" textLength="63.747" font-style="italic" font-family="'Apple SD Gothic Neo'">«규칙엔진»</text><text x="178.546" y="516.367" fill="#5C4E17" font-size="13" textLength="39.825" font-family="'Apple SD Gothic Neo'">UC-07</text><text x="144.42" y="531.499" fill="#5C4E17" font-size="13" textLength="108.077" font-family="'Apple SD Gothic Neo'">항공 반입 규정 확인</text></g><!--entity UC08--><g class="entity" data-qualified-name="AI .... .. ....UC08" id="ent0010" data-source-line="49"><ellipse cx="198.456" cy="597.997" rx="61.166" ry="31.707" fill="#D9EAE6" style="stroke:#0D6455;stroke-width:0.5;"/><text x="184.139" y="581.806" fill="#093B32" font-size="13" textLength="28.634" font-style="italic" font-family="'Apple SD Gothic Neo'">«AI»</text><text x="178.543" y="596.939" fill="#093B32" font-size="13" textLength="39.825" font-family="'Apple SD Gothic Neo'">UC-08</text><text x="152.463" y="612.072" fill="#093B32" font-size="13" textLength="91.985" font-family="'Apple SD Gothic Neo'">수하물 확인 챗봇</text></g><!--entity UC09--><g class="entity" data-qualified-name="AI .... .. ....UC09" id="ent0011" data-source-line="50"><ellipse cx="198.463" cy="670.002" rx="88.963" ry="22.112" fill="#F5F7F6" style="stroke:#8A9A94;stroke-width:0.5;"/><text x="178.55" y="663.043" fill="#14201C" font-size="13" textLength="39.825" font-family="'Apple SD Gothic Neo'">UC-09</text><text x="130.398" y="678.175" fill="#14201C" font-size="13" textLength="136.129" font-family="'Apple SD Gothic Neo'">여행 기록 조회 및 재사용</text></g><!--entity UC10--><g class="entity" data-qualified-name="AI .... .. ....UC10" id="ent0012" data-source-line="51"><ellipse cx="198.465" cy="741.995" rx="88.535" ry="31.525" fill="#D9EAE6" style="stroke:#0D6455;stroke-width:0.5;"/><text x="184.148" y="725.505" fill="#093B32" font-size="13" textLength="28.634" font-style="italic" font-family="'Apple SD Gothic Neo'">«AI»</text><text x="178.552" y="740.638" fill="#093B32" font-size="13" textLength="39.825" font-family="'Apple SD Gothic Neo'">UC-10</text><text x="130.4" y="755.771" fill="#093B32" font-size="13" textLength="136.129" font-family="'Apple SD Gothic Neo'">사진 기반 예상 무게 산정</text></g><!--entity TRAVELER--><g class="entity" data-qualified-name="TRAVELER" id="ent0001" data-source-line="39"><ellipse cx="33" cy="397.43" rx="16" ry="16" fill="#FFF" style="stroke:#46524E;stroke-width:0.5;"/><path d="M33,417.43 C37,417.43 40,417.43 44,413.43 C52,413.43 60,421.43 60,429.43 L60,433.43 C60,437.43 56,441.43 52,441.43 L14,441.43 C10,441.43 6,437.43 6,433.43 L6,429.43 C6,421.43 14,413.43 22,413.43 C26,417.43 29,417.43 33,417.43" style="stroke:#46524E;stroke-width:0.5;" fill="#FFF"/><text x="15.06" y="453.997" fill="#000" font-size="13" textLength="35.88" font-family="'Apple SD Gothic Neo'">여행자</text></g><!--entity AI--><g class="entity" data-qualified-name="AI" id="ent0013" data-source-line="55"><ellipse cx="469.331" cy="459.87" rx="16" ry="16" fill="#FFF" style="stroke:#46524E;stroke-width:0.5;"/><path d="M469.331,479.87 C473.331,479.87 476.331,479.87 480.331,475.87 C488.331,475.87 496.331,483.87 496.331,491.87 L496.331,495.87 C496.331,499.87 492.331,503.87 488.331,503.87 L450.331,503.87 C446.331,503.87 442.331,499.87 442.331,495.87 L442.331,491.87 C442.331,483.87 450.331,475.87 458.331,475.87 C462.331,479.87 465.331,479.87 469.331,479.87" style="stroke:#46524E;stroke-width:0.5;" fill="#FFF"/><text x="433.31" y="516.437" fill="#000" font-size="13" textLength="52.739" font-family="'Apple SD Gothic Neo'">AI 서비스</text><text x="433.31" y="531.57" fill="#000" font-size="13" textLength="72.042" font-family="'Apple SD Gothic Neo'">(현재 Mock)</text></g><!--entity WEATHER--><g class="entity" data-qualified-name="WEATHER" id="ent0014" data-source-line="56"><ellipse cx="469.34" cy="341.87" rx="16" ry="16" fill="#FFF" style="stroke:#46524E;stroke-width:0.5;"/><path d="M469.34,361.87 C473.34,361.87 476.34,361.87 480.34,357.87 C488.34,357.87 496.34,365.87 496.34,373.87 L496.34,377.87 C496.34,381.87 492.34,385.87 488.34,385.87 L450.34,385.87 C446.34,385.87 442.34,381.87 442.34,377.87 L442.34,373.87 C442.34,365.87 450.34,357.87 458.34,357.87 C462.34,361.87 465.34,361.87 469.34,361.87" style="stroke:#46524E;stroke-width:0.5;" fill="#FFF"/><text x="424.43" y="398.437" fill="#000" font-size="13" textLength="63.932" font-family="'Apple SD Gothic Neo'">날씨 서비스</text><text x="424.43" y="413.57" fill="#000" font-size="13" textLength="89.819" font-family="'Apple SD Gothic Neo'">(Open-Meteo)</text></g><!--entity RULES--><g class="entity" data-qualified-name="RULES" id="ent0015" data-source-line="57"><ellipse cx="469.336" cy="568.87" rx="16" ry="16" fill="#FFF" style="stroke:#46524E;stroke-width:0.5;"/><path d="M469.336,588.87 C473.336,588.87 476.336,588.87 480.336,584.87 C488.336,584.87 496.336,592.87 496.336,600.87 L496.336,604.87 C496.336,608.87 492.336,612.87 488.336,612.87 L450.336,612.87 C446.336,612.87 442.336,608.87 442.336,604.87 L442.336,600.87 C442.336,592.87 450.336,584.87 458.336,584.87 C462.336,588.87 465.336,588.87 469.336,588.87" style="stroke:#46524E;stroke-width:0.5;" fill="#FFF"/><text x="437.37" y="625.437" fill="#000" font-size="13" textLength="51.972" font-family="'Apple SD Gothic Neo'">공식 규정</text><text x="437.37" y="640.57" fill="#000" font-size="13" textLength="63.932" font-family="'Apple SD Gothic Neo'">데이터 출처</text></g><!--link TRAVELER to UC01--><g class="link" data-entity-1="ent0001" data-entity-2="ent0003" id="lnk16" data-source-line="59" data-link-type="association"><path d="M40.68,380.48 C54.61,300.12 85.5,122 85.5,122 C85.5,122 117.57,109.11 147.38,97.13" style="stroke:#181818;stroke-width:1;stroke-dasharray:7,7;" fill="none" id="TRAVELER-UC01"/></g><!--link TRAVELER to UC02--><g class="link" data-entity-1="ent0001" data-entity-2="ent0004" id="lnk17" data-source-line="60" data-link-type="association"><path d="M42.5,380.52 C57.13,314.35 85.5,186 85.5,186 C85.5,186 130.61,173.11 163.57,163.69" style="stroke:#181818;stroke-width:1;" fill="none" id="TRAVELER-UC02"/></g><!--link TRAVELER to UC03--><g class="link" data-entity-1="ent0001" data-entity-2="ent0005" id="lnk18" data-source-line="61" data-link-type="association"><path d="M45.56,380.85 C60.74,330.73 85.5,249 85.5,249 C85.5,249 124.71,238.14 156.72,229.28" style="stroke:#181818;stroke-width:1;" fill="none" id="TRAVELER-UC03"/></g><!--link TRAVELER to UC04--><g class="link" data-entity-1="ent0001" data-entity-2="ent0006" id="lnk19" data-source-line="62" data-link-type="association"><path d="M56.29,380.48 C70.21,356.43 85.5,330 85.5,330 C85.5,330 113.06,320.16 140.83,310.23" style="stroke:#181818;stroke-width:1;" fill="none" id="TRAVELER-UC04"/></g><!--link TRAVELER to UC05--><g class="link" data-entity-1="ent0001" data-entity-2="ent0007" id="lnk20" data-source-line="63" data-link-type="association"><path d="M60.99,411.07 C79.85,405.54 105.91,397.88 130.21,390.75" style="stroke:#181818;stroke-width:1;" fill="none" id="TRAVELER-UC05"/></g><!--link TRAVELER to UC06--><g class="link" data-entity-1="ent0001" data-entity-2="ent0008" id="lnk21" data-source-line="64" data-link-type="association"><path d="M60.99,422.96 C83.12,426.21 115.15,430.91 142.62,434.95" style="stroke:#181818;stroke-width:1;" fill="none" id="TRAVELER-UC06"/></g><!--link TRAVELER to UC07--><g class="link" data-entity-1="ent0001" data-entity-2="ent0009" id="lnk22" data-source-line="65" data-link-type="association"><path d="M60.96,447.79 C73.42,461.1 85.5,474 85.5,474 C85.5,474 113.49,484.5 141.48,495" style="stroke:#181818;stroke-width:1;" fill="none" id="TRAVELER-UC07"/></g><!--link TRAVELER to UC08--><g class="link" data-entity-1="ent0001" data-entity-2="ent0010" id="lnk23" data-source-line="66" data-link-type="association"><path d="M48.21,457.35 C63.45,498.49 85.5,558 85.5,558 C85.5,558 117.57,569.46 147.38,580.11" style="stroke:#181818;stroke-width:1;" fill="none" id="TRAVELER-UC08"/></g><!--link TRAVELER to UC09--><g class="link" data-entity-1="ent0001" data-entity-2="ent0011" id="lnk24" data-source-line="67" data-link-type="association"><path d="M42.97,457.32 C57.73,520.35 85.5,639 85.5,639 C85.5,639 111.14,646.1 137.88,653.5" style="stroke:#181818;stroke-width:1;" fill="none" id="TRAVELER-UC09"/></g><!--link TRAVELER to UC10--><g class="link" data-entity-1="ent0001" data-entity-2="ent0012" id="lnk25" data-source-line="68" data-link-type="association"><path d="M41,457.33 C55.08,534.43 85.5,701 85.5,701 C85.5,701 109.69,709.86 135.59,719.34" style="stroke:#181818;stroke-width:1;" fill="none" id="TRAVELER-UC10"/></g><!--link UC04 to AI--><g class="link" data-entity-1="ent0006" data-entity-2="ent0013" id="lnk26" data-source-line="70" data-link-type="association"><path d="M256.1,310.23 C283.87,320.16 311.43,330 311.43,330 C311.43,330 408.43,423 408.43,423 C408.43,423 420.1,435.86 433.14,450.23" style="stroke:#181818;stroke-width:1;" fill="none" id="UC04-AI"/></g><!--link UC05 to AI--><g class="link" data-entity-1="ent0007" data-entity-2="ent0013" id="lnk27" data-source-line="71" data-link-type="association"><path d="M260.36,393.3 C286.62,402.92 311.43,412 311.43,412 C311.43,412 386.86,449.02 433.12,471.72" style="stroke:#181818;stroke-width:1;" fill="none" id="UC05-AI"/></g><!--link UC07 to AI--><g class="link" data-entity-1="ent0009" data-entity-2="ent0013" id="lnk28" data-source-line="72" data-link-type="dependency"><path d="M270.46,508.87 C322.89,503.61 387.055,497.16 428.185,493.03" style="stroke:#181818;stroke-width:1;stroke-dasharray:7,7;" fill="none" id="UC07-to-AI"/><polygon points="433.16,492.53,423.805,489.449,428.185,493.03,424.605,497.409,433.16,492.53" fill="#181818" style="stroke:#181818;stroke-width:1;stroke-linejoin:miter;stroke-miterlimit:10;"/><text x="320.43" y="492.067" fill="#000" font-size="13" textLength="87.852" font-family="'Apple SD Gothic Neo'">물품명 구조화만</text></g><!--link UC08 to AI--><g class="link" data-entity-1="ent0010" data-entity-2="ent0013" id="lnk29" data-source-line="73" data-link-type="association"><path d="M249.55,580.11 C279.36,569.46 311.43,558 311.43,558 C311.43,558 386.86,524.83 433.12,504.48" style="stroke:#181818;stroke-width:1;" fill="none" id="UC08-AI"/></g><!--link UC10 to AI--><g class="link" data-entity-1="ent0012" data-entity-2="ent0013" id="lnk30" data-source-line="74" data-link-type="association"><path d="M261.34,719.34 C287.23,709.86 311.43,701 311.43,701 C311.43,701 424.43,543 424.43,543 C424.43,543 427.9,538.73 432.89,532.59" style="stroke:#181818;stroke-width:1;" fill="none" id="UC10-AI"/></g><!--link UC05 to WEATHER--><g class="link" data-entity-1="ent0007" data-entity-2="ent0014" id="lnk31" data-source-line="75" data-link-type="association"><path d="M285.27,371 C331.53,371 386.67,371 424.26,371" style="stroke:#181818;stroke-width:1;" fill="none" id="UC05-WEATHER"/></g><!--link UC07 to RULES--><g class="link" data-entity-1="ent0009" data-entity-2="ent0015" id="lnk32" data-source-line="76" data-link-type="association"><path d="M259.8,534.4 C314.77,551.17 393.76,575.26 437.04,588.46" style="stroke:#181818;stroke-width:1;" fill="none" id="UC07-RULES"/></g><!--link UC08 to RULES--><g class="link" data-entity-1="ent0010" data-entity-2="ent0015" id="lnk33" data-source-line="77" data-link-type="association"><path d="M259.8,598 C314.77,598 393.76,598 437.04,598" style="stroke:#181818;stroke-width:1;" fill="none" id="UC08-RULES"/></g><g class="legend" data-source-line="79"><rect x="89.063" y="810" width="344.123" height="79.188" fill="none" style="stroke:#000;stroke-width:1;" rx="7.5" ry="7.5"/><rect x="94.063" y="817" width="4.45" height="16.297" fill="#D9EAE6" style="stroke:none;"/><text x="94.063" y="829.995" fill="#000" font-size="14" font-family="'Apple SD Gothic Neo'"> </text><text x="98.513" y="829.995" fill="#000" font-size="14" font-family="'Apple SD Gothic Neo'"> </text><text x="102.964" y="829.995" fill="#000" font-size="14" textLength="77.312" font-weight="700" font-family="'Apple SD Gothic Neo'">AI 확장 지점</text><text x="184.725" y="829.995" fill="#000" font-size="14" textLength="198.346" font-family="'Apple SD Gothic Neo'">— 현재 Mock, 이후 실제 AI 연동</text><rect x="94.063" y="833.297" width="4.45" height="16.297" fill="#F5F7F6" style="stroke:none;"/><text x="94.063" y="846.292" fill="#000" font-size="14" font-family="'Apple SD Gothic Neo'"> </text><text x="102.964" y="846.292" fill="#000" font-size="14" textLength="55.97" font-family="'Apple SD Gothic Neo'">일반 기능</text><rect x="94.063" y="849.594" width="4.45" height="16.297" fill="#FFF8D5" style="stroke:none;"/><text x="94.063" y="862.589" fill="#000" font-size="14" font-family="'Apple SD Gothic Neo'"> </text><text x="98.513" y="862.589" fill="#000" font-size="14" font-family="'Apple SD Gothic Neo'"> </text><text x="102.964" y="862.589" fill="#000" font-size="14" textLength="46.936" font-weight="700" font-family="'Apple SD Gothic Neo'">UC-07</text><text x="154.349" y="862.589" fill="#000" font-size="14" textLength="269.387" font-family="'Apple SD Gothic Neo'">— AI는 물품명 구조화, 최종 판정은 규칙 엔진</text><rect x="94.063" y="865.891" width="4.45" height="16.297" fill="#EFEFEF" style="stroke:none;"/><text x="94.063" y="878.886" fill="#000" font-size="14" font-family="'Apple SD Gothic Neo'"> </text><text x="98.513" y="878.886" fill="#000" font-size="14" font-family="'Apple SD Gothic Neo'"> </text><text x="102.964" y="878.886" fill="#000" font-size="14" textLength="56.394" font-weight="700" font-family="'Apple SD Gothic Neo'">범위 제외</text><text x="163.808" y="878.886" fill="#000" font-size="14" textLength="212.12" font-family="'Apple SD Gothic Neo'">— 이번 프로젝트에서 만들지 않는다</text><line x1="94.063" y1="817" x2="428.186" y2="817" style="stroke:#000;stroke-width:1;"/><line x1="94.063" y1="833.297" x2="428.186" y2="833.297" style="stroke:#000;stroke-width:1;"/><line x1="94.063" y1="849.594" x2="428.186" y2="849.594" style="stroke:#000;stroke-width:1;"/><line x1="94.063" y1="865.891" x2="428.186" y2="865.891" style="stroke:#000;stroke-width:1;"/><line x1="94.063" y1="882.188" x2="428.186" y2="882.188" style="stroke:#000;stroke-width:1;"/><line x1="94.063" y1="817" x2="94.063" y2="882.188" style="stroke:#000;stroke-width:1;"/><line x1="98.513" y1="817" x2="98.513" y2="882.188" style="stroke:#000;stroke-width:1;"/><line x1="428.186" y1="817" x2="428.186" y2="882.188" style="stroke:#000;stroke-width:1;"/></g><?plantuml-src XLPRRnf757xVNt547f9OjSjonxAGC8RMKk9ATjo-yBA1jOsCTn6i6xbrAvBYrYLOnWt4E064AxSaBPMmWsqY-Qa_9NbZPlz3p-p5mCHMGRAPS_dEp3dVEJDt8JmFzB2Zl_nrqCsJxblGZwgqqGUzKYBDl_NzA_YGhy1oJfwCI3aPoFCJskZHbxt1PPyqtmXtWLxKwLbj6XPKBQKgy35V6lIxfFW7q1O2rJxcz-1R5tXeQnVeJqzfeG-MNZ-ee_joPD8f_eX_HITjv276LZ5S3DvTWJWjakCwa5AUDWxqQXs3Jzakp9YSLMYzW87gzAXlx5D_LQAlo_zUalS5yoTj561mtY4N1RrQe-qyq6gHnKTOlTe3_8y7mVCoEt9GjYn8iMB44jBoYWQQ2jdKwfe6oLHMJh1J2hdrb9AHij86F9OIwwjPTLD9HjIqceKxCUCpOf5RavBgavIo2YjIEYUFQD8fHTQsCZ9arFGMMupe53Kfv-GCY84HOLPIrfdGxHeH9kKLQJEjnLH5Mv0sP724Cvcq34jpy8MghQKIi22hZfljbrBVoI2wHvHIGbEpIzeM0aXFv9ow8GiZsisSd60i-5u0cFtauDwOF-PZ6ZMRbBEMD10EXeCUbB9ubapqk9nYv5ECcPdmV2W4T-Q2qN2KGx9rpZcVn-iTnRlM1Dspc9WRK0UNTVh-Y1vMQBl0BB4-WJalZyzRXPs1MNTaF19luuruegB_ffWcAPbDDCQ-VBIXVjRuZCSPQWCHzXL-u6jqImrCyd4ryFYyBazq38CHML9MqrOjRx0szsDIuR6QJgAxO4PscFE2DiiEa7BmQ37yTVH1T54GXg2E_vig3YEkpIU7qT9nnUnPTA7D7I3T_M5_nfMP799rMXH3zyRQ_lxCvqmHChQo776ACCmU7y4LLynD0NbnIeuRje-BDtIZORiCz5a7wymPktbZJrnXfpLjwSzxG3fN-cyuxN2gFBzsyu39KzxRQtYJTfDUd00zw-bFE-JF3YsUwCK-3im6BPpQ4DvR87ouMyvnqClZmdRqyHv-J7Nrdy6xSqnoZUMQyRfLjQfak_c19poF4y38kpMSh7XakyJqz93qVh4n0hViENXT2cCQDu0UTx7wHj5fiyEo-Ugj3HBal4KdUflvPjxT6j3QBbukcFdUuAo4jUZYQInlqMblOOJ1h625EjuIcA-uSa-l5J0eF5GJw_SDj_2yRKcUjMZbpPZrLnbPcNmeQx9g6dyJ3J_w4lblUM1QiUvMIkCAsUlYZQaNkjPDQRWiBZ-8BWc2tJemDMLmToYOd3I9oGdSlC332xoymCSB_BmWm0k2d41q2e91OLnXPWmgNl_qu-P3x1KnRH6V_BN3hbnMqACAQPS4WmQsFPPZ7CNEdW65QpCrje-LgBIyAYj9d4EQfcuW6xPdh4iYj0qJ4nYSaQ-9RuvsdhRA4nFcOs1OrS-0rU0rzYU-Nrfryz7J9Vj7i6sYcPSNej765IEKzKQnjSQ5OSGosiSA49x7Xy9DfyPmvtNw-mxefRBn3Cg3sKXWTfADQruD1kxOKBFmSS_aR1U7PW7d86qriBFfOHcfYFEYH5wSZBrM41DJP2RgFm00?></g></svg>