<svg xmlns="http://www.w3.org/2000/svg" xmlns:xlink="http://www.w3.org/1999/xlink" version="1.1" data-diagram-type="DESCRIPTION" style="width:861px;height:1655px;background:#FFFFFF;" width="861.667px" height="1655px" viewBox="0 0 861 1655" zoomAndPan="magnify" preserveAspectRatio="none" contentStyleType="text/css"><?plantuml 1.2026.7?><defs/><g font-family="sans-serif" lengthAdjust="spacing"><!--cluster AI 여행가방 확인 플랫폼--><g class="cluster" data-qualified-name="AI .... .. ..." id="ent0002" data-source-line="42"><rect x="155.833" y="11.667" width="357.333" height="1416.667" fill="none" style="stroke:#46524E;stroke-width:1.667;" rx="4.167" ry="4.167"/><text x="231.41" y="34.5" fill="#000" font-size="21.667" textLength="206.18" font-weight="700" font-family="'Apple SD Gothic Neo'">AI 여행가방 확인 플랫폼</text></g><!--entity UC01--><g class="entity" data-qualified-name="AI .... .. ....UC01" id="ent0003" data-source-line="43"><ellipse cx="334.495" cy="1340.008" rx="96.245" ry="61.558" fill="#EFEFEF" style="stroke:#BBB;stroke-width:0.833;"/><text x="297.012" y="1308.609" fill="#8C8C8C" font-size="21.667" textLength="74.967" font-style="italic" font-family="'Apple SD Gothic Neo'">«제외»</text><text x="305.873" y="1334.609" fill="#8C8C8C" font-size="21.667" textLength="57.243" font-family="'Apple SD Gothic Neo'">UC-01</text><text x="253.83" y="1360.609" fill="#8C8C8C" font-size="21.667" textLength="161.33" font-family="'Apple SD Gothic Neo'">회원가입 및 로그인</text><text x="294.556" y="1383.609" fill="#8C8C8C" font-size="18.333" textLength="79.878" font-family="'Apple SD Gothic Neo'">(범위 제외)</text></g><!--entity UC02--><g class="entity" data-qualified-name="AI .... .. ....UC02" id="ent0004" data-source-line="44"><ellipse cx="334.496" cy="108.329" rx="59.08" ry="39.862" fill="#F5F7F6" style="stroke:#8A9A94;stroke-width:0.833;"/><text x="303.968" y="99.719" fill="#14201C" font-size="21.667" textLength="61.057" font-family="'Apple SD Gothic Neo'">UC-02</text><text x="294.164" y="125.719" fill="#14201C" font-size="21.667" textLength="80.665" font-family="'Apple SD Gothic Neo'">여행 등록</text></g><!--entity UC03--><g class="entity" data-qualified-name="AI .... .. ....UC03" id="ent0005" data-source-line="45"><ellipse cx="334.499" cy="216.665" rx="73.449" ry="38.865" fill="#F5F7F6" style="stroke:#8A9A94;stroke-width:0.833;"/><text x="303.938" y="206.529" fill="#14201C" font-size="21.667" textLength="61.122" font-family="'Apple SD Gothic Neo'">UC-03</text><text x="281.946" y="232.529" fill="#14201C" font-size="21.667" textLength="105.105" font-family="'Apple SD Gothic Neo'">짐 사진 등록</text></g><!--entity UC04--><g class="entity" data-qualified-name="AI .... .. ....UC04" id="ent0006" data-source-line="46"><ellipse cx="334.497" cy="353.335" rx="151.997" ry="68.319" fill="#D9EAE6" style="stroke:#0D6455;stroke-width:0.833;"/><text x="306.396" y="311.351" fill="#093B32" font-size="21.667" textLength="56.203" font-style="italic" font-family="'Apple SD Gothic Neo'">«AI»</text><text x="303.731" y="337.351" fill="#093B32" font-size="21.667" textLength="61.533" font-family="'Apple SD Gothic Neo'">UC-04</text><text x="248.145" y="363.351" fill="#093B32" font-size="21.667" textLength="172.705" font-family="'Apple SD Gothic Neo'">AI 사진 속 물품 인식</text><text x="218.42" y="386.351" fill="#093B32" font-size="18.333" textLength="232.155" font-family="'Apple SD Gothic Neo'">사용자 승인 → 내 목록 완료 등록</text></g><!--entity UC05--><g class="entity" data-qualified-name="AI .... .. ....UC05" id="ent0007" data-source-line="47"><ellipse cx="334.505" cy="519.992" rx="135.372" ry="68.442" fill="#D9EAE6" style="stroke:#0D6455;stroke-width:0.833;"/><text x="306.404" y="478.208" fill="#093B32" font-size="21.667" textLength="56.203" font-style="italic" font-family="'Apple SD Gothic Neo'">«AI»</text><text x="304.345" y="504.208" fill="#093B32" font-size="21.667" textLength="60.32" font-family="'Apple SD Gothic Neo'">UC-05</text><text x="251.002" y="530.208" fill="#093B32" font-size="21.667" textLength="167.007" font-family="'Apple SD Gothic Neo'">AI 추가 준비물 추천</text><text x="231.756" y="553.208" fill="#093B32" font-size="18.333" textLength="205.498" font-family="'Apple SD Gothic Neo'">선택·승인분만 미완료로 추가</text></g><!--entity UC06--><g class="entity" data-qualified-name="AI .... .. ....UC06" id="ent0008" data-source-line="48"><ellipse cx="334.508" cy="669.996" rx="147.908" ry="52.046" fill="#F5F7F6" style="stroke:#8A9A94;stroke-width:0.833;"/><text x="303.752" y="644.219" fill="#14201C" font-size="21.667" textLength="61.512" font-family="'Apple SD Gothic Neo'">UC-06</text><text x="253.843" y="670.219" fill="#14201C" font-size="21.667" textLength="161.33" font-family="'Apple SD Gothic Neo'">내 체크리스트 관리</text><text x="222.115" y="693.219" fill="#14201C" font-size="18.333" textLength="224.785" font-family="'Apple SD Gothic Neo'">실제 준비 상태 · 사진 상태 분리</text></g><!--entity UC07--><g class="entity" data-qualified-name="AI .... .. ....UC07" id="ent0009" data-source-line="49"><ellipse cx="334.497" cy="808.34" rx="115.331" ry="56.523" fill="#FFF8D5" style="stroke:#A08B3C;stroke-width:0.833;"/><text x="278.272" y="784.175" fill="#5C4E17" font-size="21.667" textLength="112.45" font-style="italic" font-family="'Apple SD Gothic Neo'">«규칙엔진»</text><text x="304.435" y="810.175" fill="#5C4E17" font-size="21.667" textLength="60.125" font-family="'Apple SD Gothic Neo'">UC-07</text><text x="250.983" y="836.175" fill="#5C4E17" font-size="21.667" textLength="167.028" font-family="'Apple SD Gothic Neo'">항공 반입 규정 확인</text></g><!--entity UC08--><g class="entity" data-qualified-name="AI .... .. ....UC08" id="ent0010" data-source-line="50"><ellipse cx="334.506" cy="950.007" rx="95.806" ry="54.674" fill="#D9EAE6" style="stroke:#0D6455;stroke-width:0.833;"/><text x="306.405" y="922.938" fill="#093B32" font-size="21.667" textLength="56.203" font-style="italic" font-family="'Apple SD Gothic Neo'">«AI»</text><text x="303.523" y="948.938" fill="#093B32" font-size="21.667" textLength="61.967" font-family="'Apple SD Gothic Neo'">UC-08</text><text x="263.212" y="974.938" fill="#093B32" font-size="21.667" textLength="142.588" font-family="'Apple SD Gothic Neo'">수하물 확인 챗봇</text></g><!--entity UC09--><g class="entity" data-qualified-name="AI .... .. ....UC09" id="ent0011" data-source-line="51"><ellipse cx="334.493" cy="1073.337" rx="137.743" ry="37.837" fill="#F5F7F6" style="stroke:#8A9A94;stroke-width:0.833;"/><text x="303.738" y="1061.56" fill="#14201C" font-size="21.667" textLength="61.512" font-family="'Apple SD Gothic Neo'">UC-09</text><text x="229.388" y="1087.56" fill="#14201C" font-size="21.667" textLength="210.21" font-family="'Apple SD Gothic Neo'">여행 기록 조회 및 재사용</text></g><!--entity UC10--><g class="entity" data-qualified-name="AI .... .. ....UC10" id="ent0012" data-source-line="52"><ellipse cx="334.5" cy="1195.005" rx="137.517" ry="54.171" fill="#D9EAE6" style="stroke:#0D6455;stroke-width:0.833;"/><text x="306.398" y="1167.118" fill="#093B32" font-size="21.667" textLength="56.203" font-style="italic" font-family="'Apple SD Gothic Neo'">«AI»</text><text x="305.878" y="1193.118" fill="#093B32" font-size="21.667" textLength="57.243" font-family="'Apple SD Gothic Neo'">UC-10</text><text x="229.395" y="1219.118" fill="#093B32" font-size="21.667" textLength="210.21" font-family="'Apple SD Gothic Neo'">사진 기반 예상 무게 산정</text></g><!--entity TRAVELER--><g class="entity" data-qualified-name="TRAVELER" id="ent0001" data-source-line="40"><ellipse cx="55" cy="633.667" rx="26.667" ry="26.667" fill="#FFF" style="stroke:#46524E;stroke-width:0.833;"/><path d="M55,667 C61.667,667 66.667,667 73.333,660.333 C86.667,660.333 100,673.667 100,687 L100,693.667 C100,700.333 93.333,707 86.667,707 L23.333,707 C16.667,707 10,700.333 10,693.667 L10,687 C10,673.667 23.333,660.333 36.667,660.333 C43.333,667 48.333,667 55,667" style="stroke:#46524E;stroke-width:0.833;" fill="#FFF"/><text x="26.887" y="727.333" fill="#000" font-size="21.667" textLength="56.225" font-family="'Apple SD Gothic Neo'">여행자</text></g><!--entity AI--><g class="entity" data-qualified-name="AI" id="ent0013" data-source-line="56"><ellipse cx="771.621" cy="717.333" rx="26.667" ry="26.667" fill="#FFF" style="stroke:#46524E;stroke-width:0.833;"/><path d="M771.621,750.667 C778.287,750.667 783.287,750.667 789.954,744 C803.287,744 816.621,757.333 816.621,770.667 L816.621,777.333 C816.621,784 809.954,790.667 803.287,790.667 L739.954,790.667 C733.287,790.667 726.621,784 726.621,777.333 L726.621,770.667 C726.621,757.333 739.954,744 753.287,744 C759.954,750.667 764.954,750.667 771.621,750.667" style="stroke:#46524E;stroke-width:0.833;" fill="#FFF"/><text x="718.7" y="811" fill="#000" font-size="21.667" textLength="80.643" font-family="'Apple SD Gothic Neo'">AI 서비스</text><text x="718.7" y="837" fill="#000" font-size="21.667" textLength="105.842" font-family="'Apple SD Gothic Neo'">(현재 Mock)</text></g><!--entity WEATHER--><g class="entity" data-qualified-name="WEATHER" id="ent0014" data-source-line="57"><ellipse cx="771.619" cy="470.667" rx="26.667" ry="26.667" fill="#FFF" style="stroke:#46524E;stroke-width:0.833;"/><path d="M771.619,504 C778.286,504 783.286,504 789.953,497.333 C803.286,497.333 816.619,510.667 816.619,524 L816.619,530.667 C816.619,537.333 809.953,544 803.286,544 L739.953,544 C733.286,544 726.619,537.333 726.619,530.667 L726.619,524 C726.619,510.667 739.953,497.333 753.286,497.333 C759.953,504 764.953,504 771.619,504" style="stroke:#46524E;stroke-width:0.833;" fill="#FFF"/><text x="706.5" y="564.333" fill="#000" font-size="21.667" textLength="99.407" font-family="'Apple SD Gothic Neo'">날씨 서비스</text><text x="706.5" y="590.333" fill="#000" font-size="21.667" textLength="130.238" font-family="'Apple SD Gothic Neo'">(Open-Meteo)</text></g><!--entity RULES--><g class="entity" data-qualified-name="RULES" id="ent0015" data-source-line="58"><ellipse cx="771.62" cy="900.667" rx="26.667" ry="26.667" fill="#FFF" style="stroke:#46524E;stroke-width:0.833;"/><path d="M771.62,934 C778.287,934 783.287,934 789.953,927.333 C803.287,927.333 816.62,940.667 816.62,954 L816.62,960.667 C816.62,967.333 809.953,974 803.287,974 L739.953,974 C733.287,974 726.62,967.333 726.62,960.667 L726.62,954 C726.62,940.667 739.953,927.333 753.287,927.333 C759.953,934 764.953,934 771.62,934" style="stroke:#46524E;stroke-width:0.833;" fill="#FFF"/><text x="721.917" y="994.333" fill="#000" font-size="21.667" textLength="80.665" font-family="'Apple SD Gothic Neo'">공식 규정</text><text x="721.917" y="1020.333" fill="#000" font-size="21.667" textLength="99.407" font-family="'Apple SD Gothic Neo'">데이터 출처</text></g><!--link TRAVELER to UC02--><g class="link" data-entity-1="ent0001" data-entity-2="ent0004" id="lnk16" data-source-line="60" data-link-type="association"><path d="M67.533,605.833 C90.633,469.5 142.5,163.333 142.5,163.333 C142.5,163.333 223.017,140.067 279.3,123.8" style="stroke:#181818;stroke-width:1.667;" fill="none" id="TRAVELER-UC02"/></g><!--link TRAVELER to UC03--><g class="link" data-entity-1="ent0001" data-entity-2="ent0005" id="lnk17" data-source-line="61" data-link-type="association"><path d="M70.45,605.733 C94.717,492.667 142.5,270 142.5,270 C142.5,270 213.183,250.2 268.4,234.717" style="stroke:#181818;stroke-width:1.667;" fill="none" id="TRAVELER-UC03"/></g><!--link TRAVELER to UC04--><g class="link" data-entity-1="ent0001" data-entity-2="ent0006" id="lnk18" data-source-line="62" data-link-type="association"><path d="M80.35,605.617 C105.75,536.55 142.5,436.667 142.5,436.667 C142.5,436.667 181.583,419.55 224.317,400.85" style="stroke:#181818;stroke-width:1.667;" fill="none" id="TRAVELER-UC04"/></g><!--link TRAVELER to UC05--><g class="link" data-entity-1="ent0001" data-entity-2="ent0007" id="lnk19" data-source-line="63" data-link-type="association"><path d="M101.6,635.1 C122.367,618.967 142.5,603.333 142.5,603.333 C142.5,603.333 185.733,584.4 230.983,564.6" style="stroke:#181818;stroke-width:1.667;" fill="none" id="TRAVELER-UC05"/></g><!--link TRAVELER to UC06--><g class="link" data-entity-1="ent0001" data-entity-2="ent0008" id="lnk20" data-source-line="64" data-link-type="association"><path d="M101.65,670 C125.183,670 155.483,670 186.333,670" style="stroke:#181818;stroke-width:1.667;" fill="none" id="TRAVELER-UC06"/></g><!--link TRAVELER to UC07--><g class="link" data-entity-1="ent0001" data-entity-2="ent0009" id="lnk21" data-source-line="65" data-link-type="association"><path d="M101.6,704.9 C122.367,721.033 142.5,736.667 142.5,736.667 C142.5,736.667 192.717,755.583 241.567,773.967" style="stroke:#181818;stroke-width:1.667;" fill="none" id="TRAVELER-UC07"/></g><!--link TRAVELER to UC08--><g class="link" data-entity-1="ent0001" data-entity-2="ent0010" id="lnk22" data-source-line="66" data-link-type="association"><path d="M82.883,734.15 C108.133,795.9 142.5,880 142.5,880 C142.5,880 200.65,901.383 252.667,920.517" style="stroke:#181818;stroke-width:1.667;" fill="none" id="TRAVELER-UC08"/></g><!--link TRAVELER to UC09--><g class="link" data-entity-1="ent0001" data-entity-2="ent0011" id="lnk23" data-source-line="67" data-link-type="association"><path d="M72.417,734.2 C97.183,835.233 142.5,1020 142.5,1020 C142.5,1020 188.967,1033.017 236,1046.2" style="stroke:#181818;stroke-width:1.667;" fill="none" id="TRAVELER-UC09"/></g><!--link TRAVELER to UC10--><g class="link" data-entity-1="ent0001" data-entity-2="ent0012" id="lnk24" data-source-line="68" data-link-type="association"><path d="M68.783,734.467 C92.45,860.333 142.5,1126.667 142.5,1126.667 C142.5,1126.667 186.083,1142.317 231.533,1158.633" style="stroke:#181818;stroke-width:1.667;" fill="none" id="TRAVELER-UC10"/></g><!--link UC04 to AI--><g class="link" data-entity-1="ent0006" data-entity-2="ent0013" id="lnk25" data-source-line="70" data-link-type="association"><path d="M444.667,400.85 C487.417,419.55 526.5,436.667 526.5,436.667 C526.5,436.667 679.833,636.667 679.833,636.667 C679.833,636.667 698.017,662.9 718.05,691.8" style="stroke:#181818;stroke-width:1.667;" fill="none" id="UC04-AI"/></g><!--link UC05 to AI--><g class="link" data-entity-1="ent0007" data-entity-2="ent0013" id="lnk26" data-source-line="71" data-link-type="association"><path d="M438.017,564.6 C483.267,584.4 526.5,603.333 526.5,603.333 C526.5,603.333 646.85,684.083 718.317,732.033" style="stroke:#181818;stroke-width:1.667;" fill="none" id="UC05-AI"/></g><!--link UC07 to AI--><g class="link" data-entity-1="ent0009" data-entity-2="ent0013" id="lnk27" data-source-line="72" data-link-type="dependency"><path d="M448.433,797.55 C535.3,789.2 643.288,778.83 709.572,772.463" style="stroke:#181818;stroke-width:1.667;stroke-dasharray:11.667,11.667;" fill="none" id="UC07-to-AI"/><polygon points="717.867,771.667,702.298,766.465,709.572,772.463,703.573,779.737,717.867,771.667" fill="#181818" style="stroke:#181818;stroke-width:1.667;stroke-linejoin:miter;stroke-miterlimit:10;"/><text x="541.5" y="768.5" fill="#000" font-size="21.667" textLength="136.89" font-family="'Apple SD Gothic Neo'">물품명 구조화만</text></g><!--link UC08 to AI--><g class="link" data-entity-1="ent0010" data-entity-2="ent0013" id="lnk28" data-source-line="73" data-link-type="association"><path d="M416.333,920.517 C468.35,901.383 526.5,880 526.5,880 C526.5,880 646.85,823.967 718.317,790.7" style="stroke:#181818;stroke-width:1.667;" fill="none" id="UC08-AI"/></g><!--link UC10 to AI--><g class="link" data-entity-1="ent0012" data-entity-2="ent0013" id="lnk29" data-source-line="74" data-link-type="association"><path d="M437.467,1158.633 C482.917,1142.317 526.5,1126.667 526.5,1126.667 C526.5,1126.667 706.5,858.333 706.5,858.333 C706.5,858.333 711.233,851.483 718.133,841.517" style="stroke:#181818;stroke-width:1.667;" fill="none" id="UC10-AI"/></g><!--link UC05 to WEATHER--><g class="link" data-entity-1="ent0007" data-entity-2="ent0014" id="lnk30" data-source-line="75" data-link-type="association"><path d="M470.45,520 C548.817,520 644.133,520 705.867,520" style="stroke:#181818;stroke-width:1.667;" fill="none" id="UC05-WEATHER"/></g><!--link UC07 to RULES--><g class="link" data-entity-1="ent0009" data-entity-2="ent0015" id="lnk31" data-source-line="76" data-link-type="association"><path d="M431.367,839.417 C520.9,868.667 651.333,911.267 721.3,934.117" style="stroke:#181818;stroke-width:1.667;" fill="none" id="UC07-RULES"/></g><!--link UC08 to RULES--><g class="link" data-entity-1="ent0010" data-entity-2="ent0015" id="lnk32" data-source-line="77" data-link-type="association"><path d="M430.817,950 C520.317,950 651.033,950 721.167,950" style="stroke:#181818;stroke-width:1.667;" fill="none" id="UC08-RULES"/></g><g class="legend" data-source-line="79"><rect x="147.308" y="1461.667" width="555.457" height="163.333" fill="none" style="stroke:#000;stroke-width:1.667;" rx="12.5" ry="12.5"/><rect x="155.641" y="1473.333" width="6.137" height="28" fill="#D9EAE6" style="stroke:none;"/><text x="155.641" y="1494.333" fill="#000" font-size="23.333" font-family="'Apple SD Gothic Neo'"> </text><text x="161.778" y="1494.333" fill="#000" font-size="23.333" font-family="'Apple SD Gothic Neo'"> </text><text x="167.914" y="1494.333" fill="#000" font-size="23.333" textLength="114.987" font-weight="700" font-family="'Apple SD Gothic Neo'">AI 확장 지점</text><text x="289.038" y="1494.333" fill="#000" font-size="23.333" textLength="295.353" font-family="'Apple SD Gothic Neo'">— 현재 Mock, 이후 실제 AI 연동</text><rect x="155.641" y="1501.333" width="6.137" height="28" fill="#F5F7F6" style="stroke:none;"/><text x="155.641" y="1522.333" fill="#000" font-size="23.333" font-family="'Apple SD Gothic Neo'"> </text><text x="167.914" y="1522.333" fill="#000" font-size="23.333" textLength="86.87" font-family="'Apple SD Gothic Neo'">일반 기능</text><rect x="155.641" y="1529.333" width="6.137" height="28" fill="#FFF8D5" style="stroke:none;"/><text x="155.641" y="1550.333" fill="#000" font-size="23.333" font-family="'Apple SD Gothic Neo'"> </text><text x="161.778" y="1550.333" fill="#000" font-size="23.333" font-family="'Apple SD Gothic Neo'"> </text><text x="167.914" y="1550.333" fill="#000" font-size="23.333" textLength="65.427" font-weight="700" font-family="'Apple SD Gothic Neo'">UC-07</text><text x="239.478" y="1550.333" fill="#000" font-size="23.333" textLength="410.27" font-family="'Apple SD Gothic Neo'">— AI는 물품명 구조화, 최종 판정은 규칙 엔진</text><rect x="155.641" y="1557.333" width="6.137" height="28" fill="#EFEFEF" style="stroke:none;"/><text x="155.641" y="1578.333" fill="#000" font-size="23.333" font-family="'Apple SD Gothic Neo'"> </text><text x="161.778" y="1578.333" fill="#000" font-size="23.333" font-family="'Apple SD Gothic Neo'"> </text><text x="167.914" y="1578.333" fill="#000" font-size="23.333" textLength="86.87" font-weight="700" font-family="'Apple SD Gothic Neo'">범위 제외</text><text x="260.921" y="1578.333" fill="#000" font-size="23.333" textLength="326.06" font-family="'Apple SD Gothic Neo'">— 이번 프로젝트에서 만들지 않는다</text><rect x="155.641" y="1585.333" width="6.137" height="28" fill="#FFF8D5" style="stroke:none;"/><text x="155.641" y="1606.333" fill="#000" font-size="23.333" font-family="'Apple SD Gothic Neo'"> </text><text x="167.914" y="1606.333" fill="#000" font-size="23.333" textLength="520.38" font-family="'Apple SD Gothic Neo'">미채택 필수 후보는 별도 경고 · 완료율과 무게에는 미포함</text><line x1="155.641" y1="1473.333" x2="694.431" y2="1473.333" style="stroke:#000;stroke-width:1.667;"/><line x1="155.641" y1="1501.333" x2="694.431" y2="1501.333" style="stroke:#000;stroke-width:1.667;"/><line x1="155.641" y1="1529.333" x2="694.431" y2="1529.333" style="stroke:#000;stroke-width:1.667;"/><line x1="155.641" y1="1557.333" x2="694.431" y2="1557.333" style="stroke:#000;stroke-width:1.667;"/><line x1="155.641" y1="1585.333" x2="694.431" y2="1585.333" style="stroke:#000;stroke-width:1.667;"/><line x1="155.641" y1="1613.333" x2="694.431" y2="1613.333" style="stroke:#000;stroke-width:1.667;"/><line x1="155.641" y1="1473.333" x2="155.641" y2="1613.333" style="stroke:#000;stroke-width:1.667;"/><line x1="161.778" y1="1473.333" x2="161.778" y2="1613.333" style="stroke:#000;stroke-width:1.667;"/><line x1="694.431" y1="1473.333" x2="694.431" y2="1613.333" style="stroke:#000;stroke-width:1.667;"/></g><?plantuml-src XLPVRnD747-_Jp4o3q1KXpl_Ynr5aHp7RYC1bGXfN_9Yx2DOSUui-n2YfPM1WwOXA0Piui0vCcqWWRggSKnYfFI5ZyAZT-yxTFRsBZalGRMbn3ixCx_P-VFRFGl9EQ2R7VlvxyDkbNJVWhtLeAq1sFLrilsNlN44dwjrMAYemLIseW9vj4DRVVgyFpmSaEqzwIpG0ulscfEGrtEL2t8eU1DLSwWwlfA7JuSGaaEne9m8oc6WzpfqrmIwzX41FXtIWphjMK3Vc_Rz5Wox5cqtqDz2AYWhl-9VHQQjAcJOAeEBuVuHA9CAUMK1MQ_IrXExOM4quvu9KoQzEhKGeMtHhO4JkFrYdRwiVJea7qt-axPC67xea0FJRZJfRXLeOsquw3AtTgCF-1zFXl4nFVAavcgGjRg39HNLwmOOEfGBIpSCo1VAQiuew9fKMIvefMmvkmBNihdbfR9-KykdzA9UXZCPv-FJo9SAeCHadwHo8vlNRnMq9RYUBLPKtqwneAd6xP8A9RrucoryUvgULojg2PIuJrZEQijC60xv4TNhsPj58wDhnkNiYWg1PAbKL65-5hxLZHk575nMzS3f-lE5drHGmhxDRCxGo_F6RNIGlQLMz1LLykrY-LdruMS9OEQBL4Gp4vaOsz7BURNiIkF9H38HGId3SsLA92GhgIzzJ4qbvwQduSni8frC2vwyFNas5eb6_VwETnBX6KpCALw7XnRzk4KtwzYXJ1Ch5f-DYlv5hQGSdmcdHf54dMWgabOcJiFaRSfqqXds5T5EzcUSpoZEoMuynRxIBsADlb83tev23IAnQ2YI7l71MZkhBHNTMfwYpUFXhN1DB-RHNEB80KufTBiMW6m5hbv9_f2-cBuYIITE0_z7F047r-kdW3FaYngVOZIXsm-0T3TE9dPHcwfWiqugolIv4I8uFtM1RKmxeIoaP0LEiYSYX1Or7XIGP-_9gvPd4n8LmwYuM_CuRLGvB2f75ZLsMfV_7Zu6qZcodwu2uvb7BL_WJEN5MqoRovBm-U5J8FUGbzwzHG2WMoRvSzs54uuL0Txc8dYKWn_KCMb0Twf8XGWFd7xzs6ORYHXvsK56WYIxYFJFW6CoWkG-1DZeLs1ZYneBdFRwzjqEUTEXQplssW26_Iek_B1uexGjDp2Wz-_QzorsSNZPuW8MpfkE01qJCIUmFnf_3_S_O6SqMOEmOMmttDRop2P0d5BHJnoBkzh42u8bokrB-dwJz7_pVCI_Skh4SVyubmfMx5KNMzRfLBhTuVNrd2G4QqL6QtviPjrj0cskOWAmNVh3tZgcf8kdSQqLsGl1DtQiqAQ5YSHiBshdxAQ9e719posVTyoISvuckTUczRqHxUzBgXQyf1ggpfL_J2UlVeT3wrfWMh5PtPHYSHztyILWcrtt1U2ON5cuc9wN96_U8HZamoC8mg8W8WgYeY0c2YP4GLmK90I18akICoUumaGulNlySmB6nwVPOsZI7KxoxW5xAB3wRTLn52Idwfu-Pd_KYvSinnMkUIOy6pSlHNL9rVB8bOQXhs3nxqov5zdq7HWRGt3MQzkl0LyTj5qR6-DFc9CYVWCivIznAlZGE1JQ9HjRS8TxunSiUgEj8zO_h8tMNX_lEfUQW-LCYmkGdCFdpMcdHhWF5ltZ0TZhDQmvUs7nkG4-E9vVVdqvVaU8r_MFCPFUAXAxYIH2sosa0RfPmyu3J2jvjZFonleYLiP0_8beDqoSIi3pa_s-4_A-IJPmLdh_3lVR3cSuL4MjFVPOv4E3I8xgFmDxesCtzj0_be0NuZy0?></g></svg>