<svg xmlns="http://www.w3.org/2000/svg" xmlns:xlink="http://www.w3.org/1999/xlink" version="1.1" data-diagram-type="DESCRIPTION" style="width:2370px;height:2566px;background:#FFFFFF;" width="2370px" height="2566.667px" viewBox="0 0 2370 2566" zoomAndPan="magnify" preserveAspectRatio="none" contentStyleType="text/css"><?plantuml 1.2026.7?><defs/><g font-family="sans-serif" lengthAdjust="spacing"><g class="title" data-source-line="16"><text x="877.507" y="37.667" fill="#000" font-size="23.333" textLength="604.24" font-weight="700" font-family="'Apple SD Gothic Neo'">시스템 목표 구조 — 로그인 필수 · 사진 자동 등록과 추천 채택 분리</text></g><!--cluster FE--><g class="cluster" data-qualified-name="FE" id="ent0002" data-source-line="39"><polygon points="26.667,291.167,43.333,274.5,373.333,274.5,373.333,908.5,356.667,925.167,26.667,925.167,26.667,291.167" fill="#FFF" style="stroke:#46524E;stroke-width:1.667;stroke-linejoin:miter;stroke-miterlimit:10;"/><line x1="356.667" y1="291.167" x2="373.333" y2="274.5" style="stroke:#46524E;stroke-width:1.667;"/><line x1="26.667" y1="291.167" x2="356.667" y2="291.167" style="stroke:#46524E;stroke-width:1.667;"/><line x1="356.667" y1="291.167" x2="356.667" y2="925.167" style="stroke:#46524E;stroke-width:1.667;"/><text x="124.903" y="314.167" fill="#000" font-size="20" textLength="136.86" font-weight="700" font-family="'Apple SD Gothic Neo'">Frontend  :5173</text></g><!--cluster BE--><g class="cluster" data-qualified-name="BE" id="ent0006" data-source-line="45"><polygon points="413.333,733.833,430,717.167,1378.333,717.167,1378.333,1796.167,1361.667,1812.833,413.333,1812.833,413.333,733.833" fill="#FFF" style="stroke:#46524E;stroke-width:1.667;stroke-linejoin:miter;stroke-miterlimit:10;"/><line x1="1361.667" y1="733.833" x2="1378.333" y2="717.167" style="stroke:#46524E;stroke-width:1.667;"/><line x1="413.333" y1="733.833" x2="1361.667" y2="733.833" style="stroke:#46524E;stroke-width:1.667;"/><line x1="1361.667" y1="733.833" x2="1361.667" y2="1812.833" style="stroke:#46524E;stroke-width:1.667;"/><text x="818.427" y="756.833" fill="#000" font-size="20" textLength="141.48" font-weight="700" font-family="'Apple SD Gothic Neo'">Backend  :8080</text></g><!--cluster AIBOX--><g class="cluster" data-qualified-name="AIBOX" id="ent0015" data-source-line="56"><path d="M672.5,1938.167 L946.407,1938.167 A6.25,6.25 0 0 1 950.573,1942.333 L962.24,1972.167 L1260.833,1972.167 A4.167,4.167 0 0 1 1265,1976.333 L1265,2176 A4.167,4.167 0 0 1 1260.833,2180.167 L672.5,2180.167 A4.167,4.167 0 0 1 668.333,2176 L668.333,1942.333 A4.167,4.167 0 0 1 672.5,1938.167" style="stroke:#000;stroke-width:2.5;" fill="#FEFEFE"/><line x1="668.333" y1="1972.167" x2="962.24" y2="1972.167" style="stroke:#000;stroke-width:2.5;"/><text x="675" y="1959.5" fill="#000" font-size="20" textLength="272.24" font-weight="700" font-family="'Apple SD Gothic Neo'">AI 확장 지점 — 작업별 실제/Mock</text></g><!--cluster DB--><g class="cluster" data-qualified-name="DB" id="ent0018" data-source-line="61"><path d="M1793.333,1529.5 C1793.333,1512.833 1900,1512.833 1900,1512.833 C1900,1512.833 2006.667,1512.833 2006.667,1529.5 L2006.667,1808.167 C2006.667,1824.833 1900,1824.833 1900,1824.833 C1900,1824.833 1793.333,1824.833 1793.333,1808.167 L1793.333,1529.5" style="stroke:#8A9A94;stroke-width:1.667;" fill="#F5F7F6"/><path d="M1793.333,1529.5 C1793.333,1546.167 1900,1546.167 1900,1546.167 C1900,1546.167 2006.667,1546.167 2006.667,1529.5" style="stroke:#8A9A94;stroke-width:1.667;" fill="none"/><text x="1847.99" y="1567.5" fill="#000" font-size="20" textLength="104.02" font-weight="700" font-family="'Apple SD Gothic Neo'">PostgreSQL</text><text x="1850.83" y="1591.5" fill="#000" font-size="20" textLength="98.34" font-weight="700" font-family="'Apple SD Gothic Neo'">(Supabase)</text></g><!--cluster FILES--><g class="cluster" data-qualified-name="FILES" id="ent0020" data-source-line="65"><polygon points="1418.333,1621.5,1435,1604.833,1675,1604.833,1675,1796.167,1658.333,1812.833,1418.333,1812.833,1418.333,1621.5" fill="#FFF" style="stroke:#46524E;stroke-width:1.667;stroke-linejoin:miter;stroke-miterlimit:10;"/><line x1="1658.333" y1="1621.5" x2="1675" y2="1604.833" style="stroke:#46524E;stroke-width:1.667;"/><line x1="1418.333" y1="1621.5" x2="1658.333" y2="1621.5" style="stroke:#46524E;stroke-width:1.667;"/><line x1="1658.333" y1="1621.5" x2="1658.333" y2="1812.833" style="stroke:#46524E;stroke-width:1.667;"/><text x="1474.19" y="1644.5" fill="#000" font-size="20" textLength="131.62" font-weight="700" font-family="'Apple SD Gothic Neo'">로컬 파일 저장소</text></g><!--cluster EXT--><g class="cluster" data-qualified-name="EXT" id="ent0022" data-source-line="69"><path d="M1350.122,1981.57 C1356.708,1964.537 1370.169,1963.193 1381.327,1976.933 C1391.993,1960.019 1405.129,1957.296 1416.89,1975.835 C1427.138,1959.629 1440.127,1955.884 1453.802,1971.91 C1465.482,1955.67 1475.776,1958.492 1486.214,1973.21 C1496.054,1955.788 1506.434,1951.428 1521.261,1968.08 C1531.027,1951.992 1544.397,1953.177 1555.381,1966.675 C1564.799,1948.23 1583.911,1950.515 1593.727,1966.228 C1606.078,1948.422 1618.019,1948.699 1630.631,1965.953 C1642.653,1949.259 1656.516,1950.55 1664.995,1969.381 C1675.809,1955.756 1687.312,1956.024 1697.758,1969.821 C1709.641,1958.76 1723.351,1961.126 1729.574,1976.606 C1740.996,1955.968 1752.81,1953.706 1768.053,1972.917 C1781.725,1959.895 1795.377,1963.008 1801.014,1981.358 C1819.157,1960.024 1833.835,1966.861 1845,1988.5 C1849.001,1988.167 1850.834,1990.939 1848.94,1994.486 C1869.526,2000.026 1871.513,2012.302 1857.795,2027.143 C1875.746,2032.507 1876.463,2047.576 1864.924,2059.447 C1882.98,2075.938 1882.617,2090.928 1858.204,2100.461 C1872.385,2127.499 1858.208,2138.131 1833.333,2141.5 C1836.984,2139.647 1838.974,2140.382 1839.64,2144.601 C1829.741,2160.412 1814.198,2164.404 1802.718,2146.325 C1792.254,2162.016 1780.893,2163.037 1769.953,2146.814 C1760.648,2165.641 1747.869,2164.218 1734.414,2151.486 C1725.059,2166.792 1709.903,2172.412 1698.394,2153.772 C1689.905,2169.627 1675.324,2175.899 1662.542,2158.386 C1653.43,2176.401 1639.137,2174.305 1629.264,2159.149 C1619.004,2175.545 1606.462,2178.395 1593.752,2161.784 C1581.614,2174.242 1568.372,2172.689 1560.214,2157.037 C1549.714,2173.41 1531.005,2173.546 1520.766,2156.728 C1509.893,2172.186 1499.948,2167.252 1491.084,2154.606 C1478.71,2173.661 1464.929,2169.261 1453.52,2153.563 C1442.731,2166.644 1430.314,2169.078 1420.778,2152.195 C1404.054,2172.4 1390.245,2167.652 1380.205,2145.754 C1357.917,2159.768 1342.351,2154.888 1333.333,2129.833 C1336.47,2130.72 1337.193,2132.44 1335.072,2135.072 C1316.012,2125.451 1313.986,2109.057 1331.445,2096.042 C1311.312,2089.043 1309.467,2076.329 1321.039,2060.142 C1308.61,2043.69 1311.509,2031.558 1332.515,2026.519 C1309.514,2002.878 1319.979,1988.408 1345,1976.833 C1348.728,1976.187 1350.889,1977.356 1350.122,1981.57" style="stroke:#181818;stroke-width:1.667;" fill="none"/><text x="1553.857" y="2003.167" fill="#000" font-size="20" textLength="70.62" font-weight="700" font-family="'Apple SD Gothic Neo'">외부 API</text></g><!--entity FEAPP--><g class="entity" data-qualified-name="FE.FEAPP" id="ent0003" data-source-line="40"><rect x="92.467" y="374.5" width="215.053" height="81.333" fill="#F5F7F6" style="stroke:#8A9A94;stroke-width:0.833;" rx="4.167" ry="4.167"/><text x="109.133" y="409.167" fill="#14201C" font-size="20" textLength="181.72" font-family="'Apple SD Gothic Neo'">React 19 + TypeScript</text><text x="109.133" y="433.167" fill="#14201C" font-size="20" textLength="62.98" font-family="'Apple SD Gothic Neo'">(Vite 8)</text></g><!--entity FEUI--><g class="entity" data-qualified-name="FE.FEUI" id="ent0004" data-source-line="41"><rect x="54.167" y="557.5" width="291.673" height="81.333" fill="#F5F7F6" style="stroke:#8A9A94;stroke-width:0.833;" rx="4.167" ry="4.167"/><text x="70.833" y="592.167" fill="#14201C" font-size="20" textLength="176.34" font-family="'Apple SD Gothic Neo'">S-00 로그인·회원가입</text><text x="70.833" y="616.167" fill="#14201C" font-size="20" textLength="258.34" font-family="'Apple SD Gothic Neo'">S-01~S-10 세션 확인 · 화면 가드</text></g><!--entity FEAPI--><g class="entity" data-qualified-name="FE.FEAPI" id="ent0005" data-source-line="42"><rect x="105.867" y="817.167" width="201.613" height="81.333" fill="#F5F7F6" style="stroke:#8A9A94;stroke-width:0.833;" rx="4.167" ry="4.167"/><text x="122.533" y="851.833" fill="#14201C" font-size="20" textLength="120.1" font-family="'Apple SD Gothic Neo'">API 클라이언트</text><text x="122.533" y="875.833" fill="#14201C" font-size="20" textLength="105.86" font-family="'Apple SD Gothic Neo'">쿠키 · CSRF ·</text><text x="233.653" y="875.833" fill="#14201C" font-size="20" textLength="57.16" font-weight="700" font-family="'Apple SD Gothic Neo'">폴링 훅</text></g><!--entity SECURITY--><g class="entity" data-qualified-name="BE.SECURITY" id="ent0007" data-source-line="46"><rect x="637.867" y="817.167" width="207.593" height="81.333" fill="#F5F7F6" style="stroke:#8A9A94;stroke-width:0.833;" rx="4.167" ry="4.167"/><text x="654.533" y="851.833" fill="#14201C" font-size="20" textLength="126.32" font-family="'Apple SD Gothic Neo'">Spring Security</text><text x="654.533" y="875.833" fill="#14201C" font-size="20" textLength="174.26" font-family="'Apple SD Gothic Neo'">세션 인증 · CSRF 검증</text></g><!--entity SESSION--><g class="entity" data-qualified-name="BE.SESSION" id="ent0008" data-source-line="47"><rect x="440.55" y="1704.833" width="252.233" height="81.333" fill="#F5F7F6" style="stroke:#8A9A94;stroke-width:0.833;" rx="4.167" ry="4.167"/><text x="457.217" y="1739.5" fill="#14201C" font-size="20" textLength="100.88" font-family="'Apple SD Gothic Neo'">HttpSession</text><text x="457.217" y="1763.5" fill="#14201C" font-size="20" textLength="218.9" font-family="'Apple SD Gothic Neo'">서버 메모리 · 만료/로그아웃</text></g><!--entity CTRL--><g class="entity" data-qualified-name="BE.CTRL" id="ent0009" data-source-line="48"><rect x="682.25" y="1040.833" width="165.513" height="57.333" fill="#F5F7F6" style="stroke:#8A9A94;stroke-width:0.833;" rx="4.167" ry="4.167"/><text x="698.917" y="1075.5" fill="#14201C" font-size="20" textLength="132.18" font-family="'Apple SD Gothic Neo'">REST Controller</text></g><!--entity AUTH--><g class="entity" data-qualified-name="BE.AUTH" id="ent0010" data-source-line="49"><rect x="631.45" y="1264.5" width="267.093" height="105.333" fill="#F5F7F6" style="stroke:#8A9A94;stroke-width:0.833;" rx="4.167" ry="4.167"/><text x="648.117" y="1299.167" fill="#14201C" font-size="20" textLength="106.06" font-family="'Apple SD Gothic Neo'">Auth Service</text><text x="648.117" y="1323.167" fill="#14201C" font-size="20" textLength="233.76" font-family="'Apple SD Gothic Neo'">가입 4개 필드 · 아이디 로그인</text><text x="648.117" y="1347.167" fill="#14201C" font-size="20" textLength="137.3" font-family="'Apple SD Gothic Neo'">BCrypt 해시 검증</text></g><!--entity SVC--><g class="entity" data-qualified-name="BE.SVC" id="ent0011" data-source-line="50"><rect x="1041.417" y="1252.5" width="307.173" height="129.333" fill="#F5F7F6" style="stroke:#8A9A94;stroke-width:0.833;" rx="4.167" ry="4.167"/><text x="1058.083" y="1287.167" fill="#14201C" font-size="20" textLength="100.24" font-family="'Apple SD Gothic Neo'">Service 로직</text><text x="1058.083" y="1311.167" fill="#14201C" font-size="20" textLength="188.78" font-family="'Apple SD Gothic Neo'">세션 사용자 소유권 확인</text><text x="1058.083" y="1335.167" fill="#14201C" font-size="20" textLength="205.36" font-family="'Apple SD Gothic Neo'">사진 자동 등록 · 추천 채택</text><text x="1058.083" y="1359.167" fill="#14201C" font-size="20" textLength="273.84" font-family="'Apple SD Gothic Neo'">완료율 · 필수 후보 경고 · 무게 합산</text></g><!--entity REPO--><g class="entity" data-qualified-name="BE.REPO" id="ent0012" data-source-line="51"><rect x="751.783" y="1716.833" width="173.093" height="57.333" fill="#F5F7F6" style="stroke:#8A9A94;stroke-width:0.833;" rx="4.167" ry="4.167"/><text x="768.45" y="1751.5" fill="#14201C" font-size="20" textLength="139.76" font-family="'Apple SD Gothic Neo'">Repository (JPA)</text></g><!--entity RULE--><g class="entity" data-qualified-name="BE.RULE" id="ent0013" data-source-line="52"><rect x="1244.433" y="1704.833" width="107.793" height="81.333" fill="#F5F7F6" style="stroke:#8A9A94;stroke-width:0.833;" rx="4.167" ry="4.167"/><text x="1261.1" y="1739.5" fill="#14201C" font-size="20" textLength="74.46" font-weight="700" font-family="'Apple SD Gothic Neo'">규칙 엔진</text><text x="1261.1" y="1763.5" fill="#14201C" font-size="20" textLength="74.46" font-family="'Apple SD Gothic Neo'">반입 판정</text></g><!--entity IFACE--><g class="entity" data-qualified-name="BE.IFACE" id="ent0014" data-source-line="53"><rect x="983.7" y="1716.833" width="202.613" height="57.333" fill="#F5F7F6" style="stroke:#8A9A94;stroke-width:0.833;" rx="4.167" ry="4.167"/><text x="1000.367" y="1751.5" fill="#14201C" font-size="20" textLength="169.28" font-family="'Apple SD Gothic Neo'">AiClient (인터페이스)</text></g><!--entity MOCK--><g class="entity" data-qualified-name="AIBOX.MOCK" id="ent0016" data-source-line="57"><rect x="708.6" y="2034.833" width="216.133" height="105.333" fill="#D9EAE6" style="stroke:#0D6455;stroke-width:0.833;" rx="4.167" ry="4.167"/><text x="790.727" y="2069.5" fill="#14201C" font-size="20" textLength="51.88" font-style="italic" font-family="'Apple SD Gothic Neo'">«AI»</text><text x="725.267" y="2093.5" fill="#14201C" font-size="20" textLength="117.64" font-weight="700" font-family="'Apple SD Gothic Neo'">MockAiClient</text><text x="725.267" y="2117.5" fill="#14201C" font-size="20" textLength="182.8" font-family="'Apple SD Gothic Neo'">챗봇 · 품목별 중량 범위</text></g><!--entity REAL--><g class="entity" data-qualified-name="AIBOX.REAL" id="ent0017" data-source-line="58"><rect x="983.25" y="2034.833" width="210.153" height="105.333" fill="#FBF3E4" style="stroke:#8D5606;stroke-width:0.833;" rx="4.167" ry="4.167"/><text x="1045.237" y="2069.5" fill="#14201C" font-size="20" textLength="86.18" font-style="italic" font-family="'Apple SD Gothic Neo'">«future»</text><text x="999.917" y="2093.5" fill="#14201C" font-size="20" textLength="117.42" font-weight="700" font-family="'Apple SD Gothic Neo'">OpenAiClient</text><text x="999.917" y="2117.5" fill="#14201C" font-size="20" textLength="176.82" font-family="'Apple SD Gothic Neo'">사진 · 추천 · 여행 검수</text></g><!--entity TABLES--><g class="entity" data-qualified-name="DB.TABLES" id="ent0019" data-source-line="62"><rect x="1820.7" y="1692.833" width="158.613" height="105.333" fill="#F5F7F6" style="stroke:#8A9A94;stroke-width:0.833;" rx="4.167" ry="4.167"/><text x="1837.367" y="1727.5" fill="#14201C" font-size="20" textLength="98.36" font-family="'Apple SD Gothic Neo'">users · trips</text><text x="1837.367" y="1751.5" fill="#14201C" font-size="20" textLength="125.28" font-family="'Apple SD Gothic Neo'">checklist_items</text><text x="1837.367" y="1775.5" fill="#14201C" font-size="20" textLength="118.2" font-family="'Apple SD Gothic Neo'">ai_jobs (jsonb)</text></g><!--entity UP--><g class="entity" data-qualified-name="FILES.UP" id="ent0021" data-source-line="66"><rect x="1445.6" y="1704.833" width="105.453" height="81.333" fill="#F5F7F6" style="stroke:#8A9A94;stroke-width:0.833;" rx="4.167" ry="4.167"/><text x="1462.267" y="1739.5" fill="#14201C" font-size="20" textLength="72.12" font-family="'Apple SD Gothic Neo'">uploads/</text><text x="1462.267" y="1763.5" fill="#14201C" font-size="20" textLength="57.16" font-family="'Apple SD Gothic Neo'">짐 사진</text></g><!--entity WEATHER--><g class="entity" data-qualified-name="EXT.WEATHER" id="ent0023" data-source-line="70"><rect x="1627.717" y="2046.833" width="204.553" height="81.333" fill="#F5F7F6" style="stroke:#8A9A94;stroke-width:0.833;" rx="4.167" ry="4.167"/><text x="1644.383" y="2081.5" fill="#14201C" font-size="20" textLength="107.54" font-family="'Apple SD Gothic Neo'">Open-Meteo</text><text x="1644.383" y="2105.5" fill="#14201C" font-size="20" textLength="171.22" font-family="'Apple SD Gothic Neo'">16일 예보 + 계절 예보</text></g><!--entity RULES--><g class="entity" data-qualified-name="EXT.RULES" id="ent0024" data-source-line="71"><rect x="1346.883" y="2046.833" width="222.913" height="81.333" fill="#F5F7F6" style="stroke:#8A9A94;stroke-width:0.833;" rx="4.167" ry="4.167"/><text x="1363.55" y="2081.5" fill="#14201C" font-size="20" textLength="114.32" font-family="'Apple SD Gothic Neo'">공식 반입 규정</text><text x="1363.55" y="2105.5" fill="#14201C" font-size="20" textLength="189.58" font-family="'Apple SD Gothic Neo'">인천공항 · 항공정보포털</text></g><!--entity USER--><g class="entity" data-qualified-name="USER" id="ent0001" data-source-line="37"><ellipse cx="200" cy="86.333" rx="13.333" ry="13.333" fill="#F1F1F1" style="stroke:#181818;stroke-width:0.833;"/><path d="M200,99.667 L200,144.667 M178.333,113 L221.667,113 M200,144.667 L178.333,169.667 M200,144.667 L221.667,169.667" style="stroke:#181818;stroke-width:0.833;" fill="none"/><text x="174.05" y="190.167" fill="#000" font-size="20" textLength="51.9" font-family="'Apple SD Gothic Neo'">사용자</text></g><g class="entity" data-qualified-name="GMN44" id="ent0045" data-source-line="98"><path d="M1025.833,2271.833 L1025.833,2360.5 L1477.513,2360.5 L1477.513,2288.5 L1460.847,2271.833 L1025.833,2271.833" style="stroke:#181818;stroke-width:0.833;" fill="#FEFFDD"/><path d="M1460.847,2271.833 L1460.847,2288.5 L1477.513,2288.5 L1460.847,2271.833" style="stroke:#181818;stroke-width:1.667;" fill="#FEFFDD"/><text x="1035.833" y="2298.167" fill="#000" font-size="20" textLength="306.12" font-weight="700" font-family="'Apple SD Gothic Neo'">작업별 실제/Mock이 같은 계약을 쓴다.</text><text x="1035.833" y="2322.167" fill="#000" font-size="20" textLength="416.68" font-family="'Apple SD Gothic Neo'">같은 스키마를 유지해 프런트엔드 수정 없이 연동한다.</text><text x="1035.833" y="2346.167" fill="#000" font-size="20" textLength="415.22" font-family="'Apple SD Gothic Neo'">ai_jobs.model_name에는 실제 실행 모델을 기록한다.</text></g><g class="entity" data-qualified-name="GMN47" id="ent0048" data-source-line="104"><path d="M1406.95,1224.833 L1406.95,1310.5 L1349.417,1317.167 L1406.95,1323.833 L1406.95,1409.5 A0,0 0 0 0 1406.95,1409.5 L1899.73,1409.5 A0,0 0 0 0 1899.73,1409.5 L1899.73,1241.5 L1883.063,1224.833 L1406.95,1224.833 A0,0 0 0 0 1406.95,1224.833" style="stroke:#181818;stroke-width:0.833;" fill="#FEFFDD"/><path d="M1883.063,1224.833 L1883.063,1241.5 L1899.73,1241.5 L1883.063,1224.833" style="stroke:#181818;stroke-width:0.833;" fill="#FEFFDD"/><text x="1416.95" y="1251.167" fill="#000" font-size="20" textLength="292.66" font-weight="700" font-family="'Apple SD Gothic Neo'">자동 등록·추천 채택·계산은 서버 책임</text><text x="1416.95" y="1275.167" fill="#000" font-size="20" textLength="457.78" font-family="'Apple SD Gothic Neo'">BAG_CHECK 완료 → 내 목록 자동 생성·연결 + PREPARED</text><text x="1416.95" y="1299.167" fill="#000" font-size="20" textLength="398.38" font-family="'Apple SD Gothic Neo'">목록 저장 뒤 COMPLETED · 사용자 승인 요청 없음</text><text x="1416.95" y="1323.167" fill="#000" font-size="20" textLength="241.62" font-family="'Apple SD Gothic Neo'">추천 생성 → 후보 JSON만 저장</text><text x="1416.95" y="1347.167" fill="#000" font-size="20" textLength="373.8" font-family="'Apple SD Gothic Neo'">추천 채택 → 선택분만 UNCHECKED · 중복 방지</text><text x="1416.95" y="1371.167" fill="#000" font-size="20" textLength="246.52" font-family="'Apple SD Gothic Neo'">실제 PREPARED만 무게에 포함</text><text x="1416.95" y="1395.167" fill="#000" font-size="20" textLength="228.64" font-family="'Apple SD Gothic Neo'">미채택 필수 후보는 별도 경고</text></g><g class="entity" data-qualified-name="GMN50" id="ent0051" data-source-line="114"><path d="M1404.183,801.5 L1404.183,851.167 L846.033,857.833 L1404.183,864.5 L1404.183,914.167 A0,0 0 0 0 1404.183,914.167 L1749.143,914.167 A0,0 0 0 0 1749.143,914.167 L1749.143,818.167 L1732.477,801.5 L1404.183,801.5 A0,0 0 0 0 1404.183,801.5" style="stroke:#181818;stroke-width:0.833;" fill="#FEFFDD"/><path d="M1732.477,801.5 L1732.477,818.167 L1749.143,818.167 L1732.477,801.5" style="stroke:#181818;stroke-width:0.833;" fill="#FEFFDD"/><text x="1414.183" y="827.833" fill="#000" font-size="20" textLength="279.52" font-family="'Apple SD Gothic Neo'">공개: 가입 · 로그인 · 인증 상태 조회</text><text x="1414.183" y="851.833" fill="#000" font-size="20" textLength="309.96" font-family="'Apple SD Gothic Neo'">서비스 기능·챗봇·사진은 모두 인증 대상</text><text x="1414.183" y="875.833" fill="#000" font-size="20" textLength="263.24" font-family="'Apple SD Gothic Neo'">쿠키 존재만으로 로그인 판단 금지</text><text x="1414.183" y="899.833" fill="#000" font-size="20" textLength="206.28" font-family="'Apple SD Gothic Neo'">다른 사용자의 자료는 404</text></g><g class="entity" data-qualified-name="GMN53" id="ent0054" data-source-line="121"><path d="M2037.4,1701.167 L2037.4,1789.833 L2345.92,1789.833 L2345.92,1717.833 L2329.253,1701.167 L2037.4,1701.167" style="stroke:#181818;stroke-width:0.833;" fill="#FEFFDD"/><path d="M2329.253,1701.167 L2329.253,1717.833 L2345.92,1717.833 L2329.253,1701.167" style="stroke:#181818;stroke-width:1.667;" fill="#FEFFDD"/><text x="2047.4" y="1727.5" fill="#000" font-size="20" textLength="273.52" font-weight="700" font-family="'Apple SD Gothic Neo'">최종 반입 판정은 규칙 엔진이 한다.</text><text x="2047.4" y="1751.5" fill="#000" font-size="20" textLength="200.8" font-family="'Apple SD Gothic Neo'">AI는 물품명을 구조화하고</text><text x="2047.4" y="1775.5" fill="#000" font-size="20" textLength="153.44" font-family="'Apple SD Gothic Neo'">설명을 만들 뿐이다.</text></g><!--link USER to FEAPP--><g class="link" data-entity-1="ent0001" data-entity-2="ent0003" id="lnk25" data-source-line="74" data-link-type="dependency"><path d="M200,196.767 C200,250.733 200,319.567 200,365.783" style="stroke:#46524E;stroke-width:1.667;" fill="none" id="USER-to-FEAPP"/><polygon points="200,374.117,206.667,359.117,200,365.783,193.333,359.117,200,374.117" fill="#46524E" style="stroke:#46524E;stroke-width:1.667;stroke-linejoin:miter;stroke-miterlimit:10;"/></g><!--link FEAPP to FEUI--><g class="link" data-entity-1="ent0003" data-entity-2="ent0004" id="lnk26" data-source-line="75" data-link-type="dependency"><path d="M200,456.267 C200,486.217 200,518.9 200,548.833" style="stroke:#46524E;stroke-width:1.667;" fill="none" id="FEAPP-to-FEUI"/><polygon points="200,557.167,206.667,542.167,200,548.833,193.333,542.167,200,557.167" fill="#46524E" style="stroke:#46524E;stroke-width:1.667;stroke-linejoin:miter;stroke-miterlimit:10;"/></g><!--link FEUI to FEAPI--><g class="link" data-entity-1="ent0004" data-entity-2="ent0005" id="lnk27" data-source-line="76" data-link-type="dependency"><path d="M201.033,639.317 C202.283,687.5 204.167,760.103 205.417,808.303" style="stroke:#46524E;stroke-width:1.667;" fill="none" id="FEUI-to-FEAPI"/><polygon points="205.633,816.633,211.909,801.466,205.417,808.303,198.58,801.811,205.633,816.633" fill="#46524E" style="stroke:#46524E;stroke-width:1.667;stroke-linejoin:miter;stroke-miterlimit:10;"/></g><!--link FEAPI to SECURITY--><g class="link" data-entity-1="ent0005" data-entity-2="ent0007" id="lnk28" data-source-line="78" data-link-type="dependency"><path d="M307.933,857.833 C402.133,857.833 533.6,857.833 628.833,857.833" style="stroke:#46524E;stroke-width:1.667;" fill="none" id="FEAPI-to-SECURITY"/><polygon points="637.167,857.833,622.167,851.167,628.833,857.833,622.167,864.5,637.167,857.833" fill="#46524E" style="stroke:#46524E;stroke-width:1.667;stroke-linejoin:miter;stroke-miterlimit:10;"/><text x="377.913" y="797.5" fill="#000" font-size="20" textLength="191.14" font-weight="700" font-family="'Apple SD Gothic Neo'">쿠키 / JSON · 사진 요청</text><text x="350.613" y="821.5" fill="#000" font-size="20" textLength="245.74" font-family="'Apple SD Gothic Neo'">업무 API·사진 모두 로그인 필수</text><text x="341.833" y="845.5" fill="#000" font-size="20" textLength="263.3" font-family="'Apple SD Gothic Neo'">AI 작업: POST → 202 · GET 폴링</text></g><!--link SECURITY to CTRL--><g class="link" data-entity-1="ent0007" data-entity-2="ent0009" id="lnk29" data-source-line="79" data-link-type="dependency"><path d="M746.117,899.183 C750.733,940.5 756.938,995.852 760.988,1031.985" style="stroke:#46524E;stroke-width:1.667;" fill="none" id="SECURITY-to-CTRL"/><polygon points="761.917,1040.267,766.871,1024.617,760.988,1031.985,753.621,1026.103,761.917,1040.267" fill="#46524E" style="stroke:#46524E;stroke-width:1.667;stroke-linejoin:miter;stroke-miterlimit:10;"/><text x="757.783" y="983.833" fill="#000" font-size="20" textLength="123.88" font-family="'Apple SD Gothic Neo'">인증·CSRF 통과</text></g><!--link SECURITY to SESSION--><g class="link" data-entity-1="ent0007" data-entity-2="ent0008" id="lnk30" data-source-line="80" data-link-type="dependency"><path d="M719.9,898.917 C700.583,935.05 672.517,990.433 653.333,1040.833 C623.133,1120.217 616.083,1141.117 601.667,1224.833 C571.167,1401.933 566.968,1608.983 566.602,1696.117" style="stroke:#46524E;stroke-width:1.667;" fill="none" id="SECURITY-to-SESSION"/><polygon points="566.567,1704.45,573.296,1689.478,566.602,1696.117,559.963,1689.422,566.567,1704.45" fill="#46524E" style="stroke:#46524E;stroke-width:1.667;stroke-linejoin:miter;stroke-miterlimit:10;"/><text x="618.433" y="1167.833" fill="#000" font-size="20" textLength="74.46" font-family="'Apple SD Gothic Neo'">인증 상태</text></g><!--link CTRL to AUTH--><g class="link" data-entity-1="ent0009" data-entity-2="ent0010" id="lnk31" data-source-line="81" data-link-type="dependency"><path d="M765,1098.717 C765,1138.65 765,1205.017 765,1255.417" style="stroke:#46524E;stroke-width:1.667;" fill="none" id="CTRL-to-AUTH"/><polygon points="765,1263.75,771.667,1248.75,765,1255.417,758.333,1248.75,765,1263.75" fill="#46524E" style="stroke:#46524E;stroke-width:1.667;stroke-linejoin:miter;stroke-miterlimit:10;"/><text x="766.667" y="1167.833" fill="#000" font-size="20" textLength="240.04" font-family="'Apple SD Gothic Neo'">가입 · 로그인 · 세션 · 로그아웃</text></g><!--link AUTH to REPO--><g class="link" data-entity-1="ent0010" data-entity-2="ent0012" id="lnk32" data-source-line="82" data-link-type="dependency"><path d="M826.667,1370.617 C850.767,1394.833 875.633,1425.767 888.333,1459.5 C922.233,1549.567 880.729,1656.941 856.079,1708.774" style="stroke:#46524E;stroke-width:1.667;" fill="none" id="AUTH-to-REPO"/><polygon points="852.5,1716.3,864.963,1705.617,856.079,1708.774,852.922,1699.891,852.5,1716.3" fill="#46524E" style="stroke:#46524E;stroke-width:1.667;stroke-linejoin:miter;stroke-miterlimit:10;"/><text x="896.667" y="1479.167" fill="#000" font-size="20" textLength="135.16" font-family="'Apple SD Gothic Neo'">users 조회 · 가입</text></g><!--link AUTH to SESSION--><g class="link" data-entity-1="ent0010" data-entity-2="ent0008" id="lnk33" data-source-line="83" data-link-type="dependency"><path d="M688.9,1370.183 C659.617,1393.917 628.733,1424.6 610,1459.5 C567.5,1538.7 563.147,1638.769 564.43,1696.135" style="stroke:#46524E;stroke-width:1.667;" fill="none" id="AUTH-to-SESSION"/><polygon points="564.617,1704.467,570.946,1689.321,564.43,1696.135,557.616,1689.62,564.617,1704.467" fill="#46524E" style="stroke:#46524E;stroke-width:1.667;stroke-linejoin:miter;stroke-miterlimit:10;"/><text x="611.667" y="1479.167" fill="#000" font-size="20" textLength="262.52" font-family="'Apple SD Gothic Neo'">로그인 시 교체 · 로그아웃 시 폐기</text></g><!--link CTRL to SVC--><g class="link" data-entity-1="ent0009" data-entity-2="ent0011" id="lnk34" data-source-line="84" data-link-type="dependency"><path d="M848.25,1085.633 C900.567,1097.2 968.067,1116.783 1021.667,1148.167 C1067.867,1175.217 1105.604,1210.875 1137.387,1245.942" style="stroke:#46524E;stroke-width:1.667;" fill="none" id="CTRL-to-SVC"/><polygon points="1142.983,1252.117,1137.849,1236.525,1137.387,1245.942,1127.97,1245.48,1142.983,1252.117" fill="#46524E" style="stroke:#46524E;stroke-width:1.667;stroke-linejoin:miter;stroke-miterlimit:10;"/></g><!--link SVC to REPO--><g class="link" data-entity-1="ent0011" data-entity-2="ent0012" id="lnk35" data-source-line="85" data-link-type="dependency"><path d="M1155.45,1382.283 C1129.217,1418.75 1091.417,1462.017 1046.667,1486.167 C1010.433,1505.717 988.15,1475.083 955,1499.5 C881.95,1553.3 854.31,1656.667 844.36,1708.317" style="stroke:#46524E;stroke-width:1.667;" fill="none" id="SVC-to-REPO"/><polygon points="842.783,1716.5,852.167,1703.032,844.36,1708.317,839.075,1700.51,842.783,1716.5" fill="#46524E" style="stroke:#46524E;stroke-width:1.667;stroke-linejoin:miter;stroke-miterlimit:10;"/></g><!--link SVC to RULE--><g class="link" data-entity-1="ent0011" data-entity-2="ent0013" id="lnk36" data-source-line="86" data-link-type="dependency"><path d="M1210.467,1382.467 C1232.083,1471.383 1268.73,1622.103 1286.696,1695.936" style="stroke:#46524E;stroke-width:1.667;" fill="none" id="SVC-to-RULE"/><polygon points="1288.667,1704.033,1291.598,1687.882,1286.696,1695.936,1278.642,1691.035,1288.667,1704.033" fill="#46524E" style="stroke:#46524E;stroke-width:1.667;stroke-linejoin:miter;stroke-miterlimit:10;"/></g><!--link SVC to IFACE--><g class="link" data-entity-1="ent0011" data-entity-2="ent0014" id="lnk37" data-source-line="87" data-link-type="dependency"><path d="M1178.533,1382.467 C1154.133,1476.7 1111.503,1641.399 1094.203,1708.299" style="stroke:#46524E;stroke-width:1.667;" fill="none" id="SVC-to-IFACE"/><polygon points="1092.117,1716.367,1102.326,1703.513,1094.203,1708.299,1089.418,1700.175,1092.117,1716.367" fill="#46524E" style="stroke:#46524E;stroke-width:1.667;stroke-linejoin:miter;stroke-miterlimit:10;"/></g><!--link REPO to TABLES--><g class="link" data-entity-1="ent0012" data-entity-2="ent0019" id="lnk38" data-source-line="88" data-link-type="dependency"><path d="M844.133,1716.7 C855.633,1668.15 886.383,1571.333 955,1530.5 C1111.583,1437.317 1617.05,1439.633 1775,1530.5 C1834.883,1564.95 1866.132,1632.4 1883.115,1684.083" style="stroke:#46524E;stroke-width:1.667;" fill="none" id="REPO-to-TABLES"/><polygon points="1885.717,1692,1887.367,1675.668,1883.115,1684.083,1874.7,1679.831,1885.717,1692" fill="#46524E" style="stroke:#46524E;stroke-width:1.667;stroke-linejoin:miter;stroke-miterlimit:10;"/><text x="1286.667" y="1479.167" fill="#000" font-size="20" textLength="33.88" font-family="'Apple SD Gothic Neo'">SQL</text></g><!--link SVC to UP--><g class="link" data-entity-1="ent0011" data-entity-2="ent0021" id="lnk39" data-source-line="89" data-link-type="dependency"><path d="M1270.5,1382.45 C1306.133,1415 1347.5,1456.733 1378.333,1499.5 C1426.15,1565.817 1461.104,1646.32 1480.72,1696.587" style="stroke:#46524E;stroke-width:1.667;" fill="none" id="SVC-to-UP"/><polygon points="1483.75,1704.35,1484.507,1687.953,1480.72,1696.587,1472.086,1692.8,1483.75,1704.35" fill="#46524E" style="stroke:#46524E;stroke-width:1.667;stroke-linejoin:miter;stroke-miterlimit:10;"/><text x="1367.467" y="1479.167" fill="#000" font-size="20" textLength="234.7" font-family="'Apple SD Gothic Neo'">소유권 확인 후 사진 저장·조회</text></g><!--link IFACE to MOCK--><g class="link" data-entity-1="ent0014" data-entity-2="ent0016" id="lnk40" data-source-line="91" data-link-type="dependency"><path d="M1056.283,1774.95 C1035.65,1795.417 1007.617,1824.3 985,1851.5 C935.05,1911.583 888.121,1978.555 855.438,2027.088" style="stroke:#46524E;stroke-width:1.667;stroke-dasharray:11.667,11.667;" fill="none" id="IFACE-to-MOCK"/><polygon points="850.783,2034,864.692,2025.282,855.438,2027.088,853.632,2017.834,850.783,2034" fill="#46524E" style="stroke:#46524E;stroke-width:1.667;stroke-linejoin:miter;stroke-miterlimit:10;"/><text x="986.667" y="1881.167" fill="#000" font-size="20" textLength="85.78" font-family="'Apple SD Gothic Neo'">챗봇 · 무게</text></g><!--link IFACE to REAL--><g class="link" data-entity-1="ent0014" data-entity-2="ent0017" id="lnk41" data-source-line="92" data-link-type="dependency"><path d="M1085.267,1774.883 C1085.833,1831.6 1087.034,1953.317 1087.751,2025.984" style="stroke:#46524E;stroke-width:1.667;stroke-dasharray:11.667,11.667;" fill="none" id="IFACE-to-REAL"/><polygon points="1087.833,2034.317,1094.352,2019.252,1087.751,2025.984,1081.019,2019.383,1087.833,2034.317" fill="#46524E" style="stroke:#46524E;stroke-width:1.667;stroke-linejoin:miter;stroke-miterlimit:10;"/><text x="1088.133" y="1871.167" fill="#000" font-size="20" textLength="176.82" font-family="'Apple SD Gothic Neo'">사진 · 추천 · 여행 검수</text><text x="1101.635" y="1892.167" fill="#000" font-size="16.667" textLength="149.817" font-family="'Apple SD Gothic Neo'">AI_PROVIDER=openai</text></g><!--link SVC to WEATHER--><g class="link" data-entity-1="ent0011" data-entity-2="ent0023" id="lnk42" data-source-line="94" data-link-type="dependency"><path d="M1312.95,1382.533 C1334.317,1392.517 1356.7,1402 1378.333,1409.5 C1479.917,1444.717 1540,1382.483 1615,1459.5 C1775.817,1624.65 1752.076,1927.991 1737.309,2037.941" style="stroke:#46524E;stroke-width:1.667;" fill="none" id="SVC-to-WEATHER"/><polygon points="1736.2,2046.2,1744.804,2032.221,1737.309,2037.941,1731.589,2030.446,1736.2,2046.2" fill="#46524E" style="stroke:#46524E;stroke-width:1.667;stroke-linejoin:miter;stroke-miterlimit:10;"/></g><!--link RULE to RULES--><g class="link" data-entity-1="ent0013" data-entity-2="ent0024" id="lnk43" data-source-line="95" data-link-type="dependency"><path d="M1317,1786.683 C1347.75,1851.767 1405.14,1973.249 1435.974,2038.515" style="stroke:#46524E;stroke-width:1.667;" fill="none" id="RULE-to-RULES"/><polygon points="1439.533,2046.05,1439.154,2029.64,1435.974,2038.515,1427.098,2035.335,1439.533,2046.05" fill="#46524E" style="stroke:#46524E;stroke-width:1.667;stroke-linejoin:miter;stroke-miterlimit:10;"/></g><!--link AIBOX to GMN44--><g class="link" data-entity-1="ent0015" data-entity-2="ent0045" id="lnk46" data-source-line="98" data-link-type="association"><path d="M1251.667,2180.374 C1251.667,2180.678 1251.667,2180.983 1251.667,2181.288 C1251.667,2181.898 1251.667,2182.509 1251.667,2183.121 C1251.667,2184.344 1251.667,2185.571 1251.667,2186.8 C1251.667,2196.631 1251.667,2206.618 1251.667,2216.454 C1251.667,2236.125 1251.667,2255.192 1251.667,2271.2" style="stroke:#46524E;stroke-width:1.667;stroke-dasharray:11.667,11.667;" fill="none" id="AIBOX-GMN44"/></g><!--link RULE to GMN53--><g class="link" data-entity-1="ent0013" data-entity-2="ent0054" id="lnk55" data-source-line="121" data-link-type="association"><path d="M1304.667,1704.517 C1317.633,1637.1 1354.217,1505.2 1447.5,1454.5 C1550.983,1398.25 1872.4,1401.35 1977.5,1454.5 C2079.933,1506.3 2145.367,1632.75 2174.35,1700.65" style="stroke:#46524E;stroke-width:1.667;stroke-dasharray:11.667,11.667;" fill="none" id="RULE-GMN53"/></g><g class="legend" data-source-line="126"><rect x="1000.342" y="2395.5" width="358.57" height="107.333" fill="none" style="stroke:#000;stroke-width:1.667;" rx="12.5" ry="12.5"/><rect x="1008.675" y="2407.167" width="6.137" height="28" fill="#D9EAE6" style="stroke:none;"/><text x="1008.675" y="2428.167" fill="#000" font-size="23.333" font-family="'Apple SD Gothic Neo'"> </text><text x="1020.948" y="2428.167" fill="#000" font-size="23.333" textLength="323.493" font-family="'Apple SD Gothic Neo'">Mock — 여행 없는 챗봇 · 무게 범위</text><rect x="1008.675" y="2435.167" width="6.137" height="28" fill="#FBF3E4" style="stroke:none;"/><text x="1008.675" y="2456.167" fill="#000" font-size="23.333" font-family="'Apple SD Gothic Neo'"> </text><text x="1020.948" y="2456.167" fill="#000" font-size="23.333" textLength="310.52" font-family="'Apple SD Gothic Neo'">OpenAI — 사진 · 추천 · 여행 검수</text><rect x="1008.675" y="2463.167" width="6.137" height="28" fill="#F5F7F6" style="stroke:none;"/><text x="1008.675" y="2484.167" fill="#000" font-size="23.333" font-family="'Apple SD Gothic Neo'"> </text><text x="1020.948" y="2484.167" fill="#000" font-size="23.333" textLength="127.237" font-family="'Apple SD Gothic Neo'">일반 구성요소</text><line x1="1008.675" y1="2407.167" x2="1350.578" y2="2407.167" style="stroke:#000;stroke-width:1.667;"/><line x1="1008.675" y1="2435.167" x2="1350.578" y2="2435.167" style="stroke:#000;stroke-width:1.667;"/><line x1="1008.675" y1="2463.167" x2="1350.578" y2="2463.167" style="stroke:#000;stroke-width:1.667;"/><line x1="1008.675" y1="2491.167" x2="1350.578" y2="2491.167" style="stroke:#000;stroke-width:1.667;"/><line x1="1008.675" y1="2407.167" x2="1008.675" y2="2491.167" style="stroke:#000;stroke-width:1.667;"/><line x1="1014.812" y1="2407.167" x2="1014.812" y2="2491.167" style="stroke:#000;stroke-width:1.667;"/><line x1="1350.578" y1="2407.167" x2="1350.578" y2="2491.167" style="stroke:#000;stroke-width:1.667;"/></g><g class="caption" data-source-line="17"><text x="891.495" y="2547.167" fill="#000" font-size="23.333" textLength="576.263" font-family="'Apple SD Gothic Neo'">개정 계약의 설계도 · 코드 반영 현황은 docs/README.md 참조</text></g><?plantuml-src rLTjKnDP5lxUl-8Myq4diq1mW57AfIg4ZcOM9Kl0dQsYoegXXOoXEvKqE-MkiuNOk0ncbgY914sOk1C7S6DDW2Yn1ckg_2b-JD_-3_kSUpilHAsfsc_Z2tJtFVVSy_ASvvnxYhtBBlzU_Ycd6FC56T-iE8--QrINxUeUSxPol5XdJZPjR__NsJXcxvQpZDyhyFMoirfWF6SvAtZwdX_aQJj_LS3J29ipegb-xs1l91bTY9bQr5nAQdsBSuoTvcjvNievkRozLsFyqNt-_0qlMip9xJP-oRF6OOc_BjZtofygfuI-VOkNCgnHh_BoyWZh2QYzOshl-1ZZ9OiVr3eiQRoiyATLXgsyMEEFQesZkhszoujvPZzV9I-i_HxIwEHUydiLPkzbQUyEbFg2y9NP3ylOnVCLnhSpzayL-zanit-kuudPhot-9Cti1yimxmyCcXc_SnjYS7_DtadZx0oCiJDaECxuFQLSITs8wOb8ChB8haMYD-QJnf8-vpVYHf9z4X1_EYJc4Z4sCEpj-99QYCmPtyJqUNOz4azfdRBQzSXIt0mOkdavigYn7byY4TTOU9nTCCo5M9HTreoU3yk7Ot_NsC2PZaLVCcbyurerE3nqPb3jM8mQYmb3rx3Fl8aJaa1RH9-FQuePC_7UXeZzVC-vtq8A0Tb-Ma0s1S1p5f39tXunlbBXEvP0mSOMOB5lFoqs3ey1xIm_A10YdJj5Ph-o00qb6acOCKDdZMe1g0PyBPvxGw3ZLXalzeObLBx9sWznVZNFyxUPaxUShJrUN9PLCgNwnY-fL1oyMeTXoeTSO_zG61jxBq53WIy2mxHY9EUqfFlrhE-SxzmWlb8itMy3WsUy0_xtTPm_xmkEZh9Fni-fFhLBKtFDEpuyE3JqeRtNbwYkIIOm5lXS7UpUtru_Epuqx1rMlktmJJVcj8-u9N7NvPQRzquLSn4pSYsIqlwFw7ohA96eYGyzbE_7UqXt3ukas4nOdL8KOLjF88a0QZfOQsHeu8lFnNf05OUr4zCpfK4H6pZ7FcFJDnDQE9gC9SnP_VGLy1ux-wcxonSAdTmMxlLws_XxU-GyJlCd6J0HtrwTrR4wyCzmxu0NGAhprNoJXm4cPojBr4dy_B3WQfy9dbJk2mMPSxjc5uy56TQTzVgipdyjWQj9XJyy5Q3V7e-pKRDt0CadgnvFoz8WHKU6W88g8t3MUzOh9CRUYq0uaIG626lHfMJCl8cJfCqmcFzKR1tOE5Z6gz0HLlqpKy7flvxKSz4q4s4jbK91aOw2VM0HJzlFTuc5eGPSQ_-OxdUZXefzSiTL5mu79oztvKKDJpC_CfWqud4jAGJzqrCJNP5QCXTWUV9liQWsgylmiq6KCp425IsLBqugrkni1r_CwcF-vCs42QaQ2ARJDz_CzCMk-4Zrj9llt6w7fmaynk-cUQ7KU9LsqmoH3v2GCAMJX22sPI4WlB0hW24fp7bYsOV0ny4RT2iHjKgjSG3LkJs-KfNnkkBlnd32ICLG3ZVPwIz3FWdQAJKqULBCusaS5VZhBOm8MPZdySpgn6c8c9FEWF_ajfa9jIl6CNyyHa-duPjZLPr_vmcMwsLvJZ3WyrDTAmc0BJ9FhI8e0h7zZA51K_yNGyVsVRwvQXyYAkZnfKB_9IDwGqOyE3Rv5UfTfR_TuFHuIAvf0fdCzpVjshz4n1wieIS8bUNxzW_VCViWomkMK7ffqlyd9YcmM-5aGjDFA9J9QgU7diGG9N2nbdV3wPjWRKuaXrlyrHCoKkPyKWl_UGBC4LvAYCyoF1XskbnQIcd951rYWcfIitfqGOlUYCTIvbLGpY8-H69NlpQkfTZfhrE6VasgcVQDJQZXTcKJ67-f875fNaHpAm7upu13IG91YBvtQY9kHEPI_V1t9-DsIKcP8T8QZHjBSs3JhRhzQfc1HCIQ-jLqjnwANkybpTICMNrWM1oUNoF4VYRQPsdDVHVx_wBwfY-2aKzeQ1nYX2io5te4oL8ELe5j3WfOSt8lP3cy8C5I3hgSZOfZrLlm564WfcUzlQCkEOkVxZleb7wqLeEAMCQ7P6n-mSJN9e6n4P2eIwpzxClmvENE4U8nqF1280J0hTGeAc-Ft4LYjVkPzoQGMPqcS07r4HQQ18Mzk_k0dV6U8RqNr6ac6Ljf6K0s4gt14ictRuy4spftNs9gEIddycHBbCPOvqv14Vj9WBWBgouD4dUqp2Et96-rFmi6LiGcsas4WTqIdfXaqD98M6fhYxMjQ6iN72gcw6xrOidPoE0AqBQJ20p_MwUsNuXycY-IM8HLhSJ9Ci3PABMMu4o8Gj95maIahKoAya3kX5EA8ZIplhvHIHFOtE8KoROT4gBkHzXlaiIiVZw5mNTam3lg2ruDJKrU2OwhKtyqK2wHsFb-MXjLMYOt2uCSRdaUfkB6r77DC4rZaHdN9JMYUW3I3z4dQ1ZfsQ9Pj3cwOlrX3VUOFey7-zn56g1NolRE6jsA42NGCXeVReMM_KCLmmNw0VLAURU3MtT9CT-iedavEReLzK6NoqfzY-2V-5KTbmA-cR7Niwv1z8kYGONnVPqCGShHzfeAQ0mXxrmVuzfrapoKlOpywsYLo5HdetnxHDwjL8KhSgxW-wjysn8-ZlakNFLVL957sKv5nTahDRelKDjrDVCxHTmXeNcpsZYeWgr2G9PlIXs7YgQaW0akYcNcdxmKcb2drV4c7xYTVlsrWBjW1XcejC9QRLqS8SvtkpWn2jqmfUOEINaB8KbkbV18zn78pLmMdhZ7egaTlWHFxY5Vj5V6kMatoKkq8W-CA3AtIxxyN7UrdnWeA56slD78qQ8x8QB2H4RQmnq86AFKnmcbauLSnY0xaI9SkTVB0W7hL7UYl9hSIMbqwTFLOAUNeOIsIYhcJsjykm87UU4O9tQoR3fZtzk5uZKP4q3BVbPlPqZStP3m7zFayA1tyADkkdCEaFUomF-poavCGgAYEcSbAWWNoG9qlg08QELOp22h0kxYNehntidbARuKYBAxHfFlmpApVytG97go7EBQFBt8eiUkM-VTwzpeBKP5BgSdIJL0dAYuBhfo1nzsIswNjpbi5vDEK2huBVvgRHRNBcn6QqTCX5lMFY7-RXeoC5KQhFmF?></g></svg>